<?xml version="1.0" encoding="UTF-8"?>
<!DOCTYPE svg PUBLIC "-//W3C//DTD SVG 1.1//EN" "http://www.w3.org/Graphics/SVG/1.1/DTD/svg11.dtd">
<svg width="300pt" height="262pt" viewBox="0 0 300 262" version="1.1" xmlns="http://www.w3.org/2000/svg">
<path fill="#fefefe" d=" M 0.00 0.00 L 140.40 0.00 C 105.99 5.15 72.55 22.37 51.64 50.67 C 48.54 53.22 44.28 54.04 41.53 57.06 C 40.20 58.10 39.60 59.71 39.06 61.26 C 38.65 62.41 38.28 63.57 37.96 64.75 C 37.57 65.99 37.20 67.23 36.87 68.49 C 36.17 69.86 35.38 71.21 35.09 72.74 L 34.85 73.68 C 34.59 73.95 34.06 74.49 33.80 74.76 C 32.34 75.58 30.39 76.02 30.02 78.02 C 24.62 90.78 20.93 104.27 14.67 116.69 C 10.27 125.43 7.60 136.02 12.95 145.03 C 16.70 151.00 20.93 157.39 27.24 160.92 C 27.87 162.65 28.36 164.42 28.96 166.16 C 41.71 214.91 85.47 253.66 135.41 260.42 C 138.06 260.84 141.02 260.72 143.50 262.00 L 0.00 262.00 L 0.00 0.00 Z"/>
<path fill="#797a7a" d=" M 140.40 0.00 L 168.60 0.00 C 192.47 3.47 215.86 12.04 234.96 27.03 C 267.99 51.70 287.00 92.98 286.03 134.00 C 286.30 139.46 284.73 145.08 286.42 150.42 C 287.93 153.50 286.49 156.43 285.32 159.17 C 284.60 158.03 283.88 156.89 283.09 155.81 C 283.04 157.55 283.08 159.29 283.16 161.03 C 281.23 162.22 279.29 163.42 277.18 164.26 C 285.75 129.84 280.93 91.69 260.97 62.01 C 240.62 29.41 204.33 8.22 166.23 4.74 C 158.82 3.91 151.08 3.19 143.73 4.65 C 117.28 7.32 91.65 18.03 71.78 35.78 C 68.42 39.09 63.87 41.41 61.94 45.91 C 60.66 46.93 59.43 48.01 58.19 49.08 C 50.38 55.23 45.36 64.12 41.60 73.19 C 40.46 71.45 39.98 69.45 39.96 67.39 C 41.77 65.04 43.46 62.59 45.00 60.06 C 44.53 60.07 43.60 60.10 43.14 60.11 C 44.78 59.25 46.27 58.21 46.23 56.14 C 44.93 57.53 43.25 57.82 41.53 57.06 C 44.28 54.04 48.54 53.22 51.64 50.67 C 72.55 22.37 105.99 5.15 140.40 0.00 Z"/>
<path fill="#fefefe" d=" M 168.60 0.00 L 300.00 0.00 L 300.00 262.00 L 166.60 262.00 C 186.01 259.35 205.34 253.97 222.09 243.56 C 224.02 242.34 225.91 241.06 227.85 239.85 C 239.26 240.96 251.85 239.58 260.95 231.95 C 266.17 225.79 268.38 217.97 270.53 210.37 C 274.19 200.04 278.34 189.89 282.86 179.91 C 284.95 175.36 283.65 170.39 282.71 165.76 L 282.99 164.90 C 283.46 163.71 283.88 162.51 284.29 161.30 C 284.54 160.77 285.06 159.70 285.32 159.17 C 286.49 156.43 287.93 153.50 286.42 150.42 C 284.73 145.08 286.30 139.46 286.03 134.00 C 287.00 92.98 267.99 51.70 234.96 27.03 C 215.86 12.04 192.47 3.47 168.60 0.00 Z"/>
<path fill="#858585" d=" M 143.73 4.65 C 151.08 3.19 158.82 3.91 166.23 4.74 C 158.73 5.04 151.22 5.11 143.73 4.65 Z"/>
<path fill="#929292" d=" M 71.78 35.78 C 91.65 18.03 117.28 7.32 143.73 4.65 C 151.22 5.11 158.73 5.04 166.23 4.74 C 204.33 8.22 240.62 29.41 260.97 62.01 C 280.93 91.69 285.75 129.84 277.18 164.26 C 276.62 164.48 275.50 164.91 274.94 165.12 C 286.17 126.20 277.16 82.07 250.86 51.16 C 231.04 26.17 200.57 10.89 169.23 6.71 C 159.83 6.03 150.05 4.95 140.73 6.68 C 112.15 10.48 84.62 23.67 64.89 44.86 C 64.42 45.15 63.48 45.74 63.01 46.03 L 61.94 45.91 C 63.87 41.41 68.42 39.09 71.78 35.78 Z"/>
<path fill="#9e9e9e" d=" M 140.73 6.68 C 150.05 4.95 159.83 6.03 169.23 6.71 C 159.73 7.07 150.22 7.22 140.73 6.68 Z"/>
<path fill="#a7a7a7" d=" M 64.89 44.86 C 84.62 23.67 112.15 10.48 140.73 6.68 C 150.22 7.22 159.73 7.07 169.23 6.71 C 200.57 10.89 231.04 26.17 250.86 51.16 C 277.16 82.07 286.17 126.20 274.94 165.12 C 273.99 165.49 273.01 165.75 272.00 165.93 C 274.46 160.64 275.45 154.84 276.24 149.11 C 282.97 109.91 267.79 68.15 238.78 41.22 C 205.80 9.22 153.75 -0.67 111.13 16.18 C 95.27 22.18 80.47 31.54 68.88 43.95 C 68.43 44.25 67.55 44.84 67.10 45.13 C 66.55 45.07 65.44 44.93 64.89 44.86 Z"/>
<path fill="#bbbcbc" d=" M 111.13 16.18 C 153.75 -0.67 205.80 9.22 238.78 41.22 C 267.79 68.15 282.97 109.91 276.24 149.11 C 275.45 154.84 274.46 160.64 272.00 165.93 C 271.51 166.00 270.53 166.16 270.04 166.24 C 271.57 158.47 273.58 150.74 273.95 142.79 C 274.73 139.53 274.98 136.17 275.02 132.82 C 275.02 131.14 275.01 127.78 275.00 126.10 C 274.95 123.44 274.22 120.86 273.84 118.23 C 274.52 113.86 272.47 109.85 270.71 106.01 C 266.29 109.31 264.70 115.03 261.09 119.08 C 251.56 132.02 242.83 145.51 233.75 158.77 C 231.62 161.88 228.32 163.45 224.80 164.36 C 224.09 164.25 222.67 164.02 221.95 163.91 C 222.37 162.39 222.81 160.87 223.18 159.33 L 224.02 158.89 C 240.00 139.66 252.70 117.69 267.38 97.37 C 268.63 97.35 269.83 97.72 271.07 97.85 C 270.52 92.59 267.98 87.75 266.09 82.86 C 264.93 80.10 263.80 77.31 262.09 74.83 C 261.12 73.14 260.16 71.45 259.08 69.83 C 258.23 68.40 257.25 67.05 256.15 65.80 C 255.22 64.42 254.31 63.05 253.35 61.70 C 252.51 60.30 251.47 59.04 250.40 57.82 C 249.12 56.10 247.84 54.36 246.31 52.86 C 244.45 50.97 242.67 49.02 241.10 46.89 C 239.44 44.90 237.60 43.03 235.36 41.71 C 232.36 38.96 229.18 36.44 226.01 33.90 C 223.79 32.06 221.33 30.53 218.85 29.07 C 214.43 26.34 209.90 23.72 205.07 21.77 C 202.94 20.36 200.47 19.65 198.07 18.84 C 195.51 17.58 192.78 16.72 190.06 15.86 C 185.90 14.40 181.52 13.65 177.18 12.99 C 171.23 12.14 165.26 10.86 159.21 11.08 C 155.53 11.06 151.87 10.92 148.19 11.10 C 120.84 11.92 94.39 23.94 74.12 42.05 C 72.36 42.64 70.64 43.37 68.88 43.95 C 80.47 31.54 95.27 22.18 111.13 16.18 Z"/>
<path fill="#8cd5f1" d=" M 74.12 42.05 C 94.39 23.94 120.84 11.92 148.19 11.10 C 131.92 20.68 116.49 31.58 100.29 41.27 C 93.01 44.59 84.85 45.16 76.99 44.21 C 74.84 44.22 72.93 45.47 70.86 45.94 C 71.95 44.65 73.04 43.35 74.12 42.05 Z"/>
<path fill="#89d1ef" d=" M 148.19 11.10 C 151.87 10.92 155.53 11.06 159.21 11.08 C 143.21 21.88 126.61 31.76 110.55 42.45 C 101.25 47.75 88.44 50.29 85.00 62.04 C 86.49 65.59 89.95 67.77 91.97 71.01 C 92.00 71.77 92.04 73.31 92.06 74.07 C 86.45 69.01 77.13 64.92 70.50 70.39 C 63.20 74.15 62.64 83.93 65.03 90.93 C 60.30 86.48 56.57 80.72 50.78 77.50 C 50.26 77.54 49.23 77.62 48.72 77.67 L 47.76 77.75 C 53.20 65.78 60.95 54.63 70.86 45.94 C 72.93 45.47 74.84 44.22 76.99 44.21 C 84.85 45.16 93.01 44.59 100.29 41.27 C 116.49 31.58 131.92 20.68 148.19 11.10 Z"/>
<path fill="#83cbeb" d=" M 159.21 11.08 C 165.26 10.86 171.23 12.14 177.18 12.99 C 175.85 14.01 174.52 15.04 173.19 16.07 C 173.11 15.28 172.94 13.70 172.86 12.91 C 152.54 24.40 133.51 38.43 113.30 50.24 C 107.04 52.04 100.45 56.02 98.58 62.64 C 96.63 68.77 99.55 75.18 98.33 81.29 C 96.10 77.90 95.31 73.58 91.97 71.01 C 89.95 67.77 86.49 65.59 85.00 62.04 C 88.44 50.29 101.25 47.75 110.55 42.45 C 126.61 31.76 143.21 21.88 159.21 11.08 Z"/>
<path fill="#7ec4e6" d=" M 113.30 50.24 C 133.51 38.43 152.54 24.40 172.86 12.91 C 172.94 13.70 173.11 15.28 173.19 16.07 C 161.39 24.85 150.44 34.65 139.13 44.02 C 137.73 44.21 136.22 44.16 135.06 45.09 C 127.91 49.57 120.65 53.90 113.74 58.74 C 103.71 63.87 104.96 76.17 101.40 85.35 C 98.89 92.66 94.57 100.09 86.83 102.78 C 82.50 105.02 77.44 103.82 72.88 103.06 C 63.81 95.92 53.43 89.70 46.62 80.17 C 46.90 79.56 47.47 78.35 47.76 77.75 L 48.72 77.67 C 48.62 78.23 48.41 79.35 48.31 79.91 C 51.86 84.71 58.36 86.51 61.12 91.92 C 65.52 97.75 72.59 100.68 79.68 101.53 C 85.04 100.57 90.28 98.03 93.83 93.82 C 96.68 90.22 97.05 85.54 98.33 81.29 C 99.55 75.18 96.63 68.77 98.58 62.64 C 100.45 56.02 107.04 52.04 113.30 50.24 Z"/>
<path fill="#fbfcfc" d=" M 177.18 12.99 C 181.52 13.65 185.90 14.40 190.06 15.86 C 190.47 17.88 191.65 20.21 190.00 22.00 C 182.67 31.46 176.47 41.72 169.31 51.30 C 164.49 60.21 157.29 67.46 152.16 76.17 C 146.53 85.16 140.39 93.83 133.99 102.29 C 132.12 101.15 130.20 100.09 128.31 98.97 C 126.93 97.48 125.51 96.03 124.04 94.64 C 123.29 93.83 122.54 93.02 121.89 92.14 C 122.08 85.25 122.71 78.18 119.82 71.69 C 120.92 69.08 122.18 66.54 123.39 63.98 C 127.86 56.72 133.91 50.70 139.13 44.02 C 150.44 34.65 161.39 24.85 173.19 16.07 C 174.52 15.04 175.85 14.01 177.18 12.99 Z"/>
<path fill="#f9f9f9" d=" M 190.06 15.86 C 192.78 16.72 195.51 17.58 198.07 18.84 C 199.91 20.40 201.83 21.86 203.84 23.21 C 185.45 50.58 166.24 77.42 147.73 104.71 C 146.53 106.76 143.73 105.82 141.77 106.31 C 140.56 105.77 139.36 105.20 138.15 104.66 C 136.75 103.91 135.34 103.14 133.99 102.29 C 140.39 93.83 146.53 85.16 152.16 76.17 C 157.29 67.46 164.49 60.21 169.31 51.30 C 176.47 41.72 182.67 31.46 190.00 22.00 C 191.65 20.21 190.47 17.88 190.06 15.86 Z"/>
<path fill="#f6f6f6" d=" M 198.07 18.84 C 200.47 19.65 202.94 20.36 205.07 21.77 C 206.66 24.22 209.67 25.40 211.06 27.97 C 193.95 52.26 177.38 76.88 160.16 101.11 C 157.52 104.41 155.93 110.27 150.83 110.32 C 149.68 109.87 148.56 109.38 147.42 108.93 C 145.53 108.07 143.63 107.25 141.77 106.31 C 143.73 105.82 146.53 106.76 147.73 104.71 C 166.24 77.42 185.45 50.58 203.84 23.21 C 201.83 21.86 199.91 20.40 198.07 18.84 Z"/>
<path fill="#f4f4f4" d=" M 205.07 21.77 C 209.90 23.72 214.43 26.34 218.85 29.07 C 219.31 30.80 221.78 32.54 220.30 34.31 C 202.54 60.45 184.33 86.29 166.46 112.37 C 166.24 113.08 165.80 114.50 165.58 115.21 C 164.99 115.07 163.82 114.79 163.23 114.65 C 161.25 113.93 159.25 113.23 157.23 112.64 C 155.09 111.89 152.93 111.17 150.83 110.32 C 155.93 110.27 157.52 104.41 160.16 101.11 C 177.38 76.88 193.95 52.26 211.06 27.97 C 209.67 25.40 206.66 24.22 205.07 21.77 Z"/>
<path fill="#f0f0f0" d=" M 218.85 29.07 C 221.33 30.53 223.79 32.06 226.01 33.90 C 226.56 35.31 227.27 36.66 227.85 38.06 C 213.14 59.25 198.56 80.60 183.62 101.64 C 179.88 107.00 176.70 112.96 171.87 117.44 C 169.75 116.78 167.64 116.04 165.58 115.21 C 165.80 114.50 166.24 113.08 166.46 112.37 C 184.33 86.29 202.54 60.45 220.30 34.31 C 221.78 32.54 219.31 30.80 218.85 29.07 Z"/>
<path fill="#ececec" d=" M 226.01 33.90 C 229.18 36.44 232.36 38.96 235.36 41.71 C 218.68 64.72 203.36 88.67 186.61 111.64 C 184.24 114.41 183.44 118.97 179.85 120.44 C 178.26 119.92 176.72 119.30 175.16 118.70 C 174.07 118.25 172.97 117.86 171.87 117.44 C 176.70 112.96 179.88 107.00 183.62 101.64 C 198.56 80.60 213.14 59.25 227.85 38.06 C 227.27 36.66 226.56 35.31 226.01 33.90 Z"/>
<path fill="#afbdc4" d=" M 68.88 43.95 C 70.64 43.37 72.36 42.64 74.12 42.05 C 73.04 43.35 71.95 44.65 70.86 45.94 C 60.95 54.63 53.20 65.78 47.76 77.75 C 47.47 78.35 46.90 79.56 46.62 80.17 C 46.02 79.51 45.45 78.83 44.89 78.14 C 49.47 65.50 57.97 54.81 67.10 45.13 C 67.55 44.84 68.43 44.25 68.88 43.95 Z"/>
<path fill="#e8e8e8" d=" M 235.36 41.71 C 237.60 43.03 239.44 44.90 241.10 46.89 C 241.22 48.18 241.43 49.46 241.46 50.75 C 224.98 74.81 208.10 98.58 191.70 122.68 C 190.98 122.86 189.54 123.21 188.82 123.39 C 188.15 123.19 186.83 122.80 186.17 122.60 C 184.06 121.87 181.95 121.18 179.85 120.44 C 183.44 118.97 184.24 114.41 186.61 111.64 C 203.36 88.67 218.68 64.72 235.36 41.71 Z"/>
<path fill="#79bfe4" d=" M 135.06 45.09 C 136.22 44.16 137.73 44.21 139.13 44.02 C 133.91 50.70 127.86 56.72 123.39 63.98 C 121.31 61.90 118.90 64.98 116.97 65.96 C 109.34 73.76 108.45 85.43 101.94 93.96 C 99.22 98.82 94.55 102.01 90.00 104.99 C 86.63 107.20 82.46 106.03 78.76 107.05 C 76.71 105.86 74.76 104.50 72.88 103.06 C 77.44 103.82 82.50 105.02 86.83 102.78 C 94.57 100.09 98.89 92.66 101.40 85.35 C 104.96 76.17 103.71 63.87 113.74 58.74 C 120.65 53.90 127.91 49.57 135.06 45.09 Z"/>
<path fill="#9fa9af" d=" M 63.01 46.03 C 63.48 45.74 64.42 45.15 64.89 44.86 C 65.44 44.93 66.55 45.07 67.10 45.13 C 57.97 54.81 49.47 65.50 44.89 78.14 C 44.55 77.68 43.87 76.74 43.53 76.27 C 47.54 66.71 53.13 57.80 60.23 50.24 C 61.41 49.02 62.21 47.51 63.01 46.03 Z"/>
<path fill="#8f989c" d=" M 58.19 49.08 C 59.43 48.01 60.66 46.93 61.94 45.91 L 63.01 46.03 C 62.21 47.51 61.41 49.02 60.23 50.24 C 53.13 57.80 47.54 66.71 43.53 76.27 C 43.32 75.96 42.90 75.35 42.69 75.04 C 45.19 64.97 52.78 57.52 58.19 49.08 Z"/>
<path fill="#e3e3e4" d=" M 241.10 46.89 C 242.67 49.02 244.45 50.97 246.31 52.86 C 245.41 60.80 238.87 66.46 234.89 72.92 C 224.37 88.09 213.71 103.17 203.64 118.66 C 201.35 121.51 199.32 124.85 195.81 126.32 C 195.42 126.18 194.63 125.91 194.23 125.77 C 192.41 125.01 190.60 124.23 188.82 123.39 C 189.54 123.21 190.98 122.86 191.70 122.68 C 208.10 98.58 224.98 74.81 241.46 50.75 C 241.43 49.46 241.22 48.18 241.10 46.89 Z"/>
<path fill="#7b8387" d=" M 41.60 73.19 C 45.36 64.12 50.38 55.23 58.19 49.08 C 52.78 57.52 45.19 64.97 42.69 75.04 C 42.42 74.57 41.87 73.65 41.60 73.19 Z"/>
<path fill="#dfdfdf" d=" M 246.31 52.86 C 247.84 54.36 249.12 56.10 250.40 57.82 C 249.83 62.51 245.95 65.68 243.50 69.43 C 235.19 82.39 225.62 94.49 217.51 107.58 C 212.05 114.32 207.44 121.68 203.20 129.23 C 200.70 128.34 198.28 127.27 195.81 126.32 C 199.32 124.85 201.35 121.51 203.64 118.66 C 213.71 103.17 224.37 88.09 234.89 72.92 C 238.87 66.46 245.41 60.80 246.31 52.86 Z"/>
<path fill="#b1b1b2" d=" M 41.53 57.06 C 43.25 57.82 44.93 57.53 46.23 56.14 C 46.27 58.21 44.78 59.25 43.14 60.11 C 41.91 60.97 40.60 61.91 39.06 61.26 C 39.60 59.71 40.20 58.10 41.53 57.06 Z"/>
<path fill="#dbdbdb" d=" M 250.40 57.82 C 251.47 59.04 252.51 60.30 253.35 61.70 C 253.51 63.76 254.52 66.11 252.84 67.82 C 239.94 86.89 226.58 105.64 213.67 124.70 C 211.38 126.79 210.26 130.76 206.87 131.37 C 205.54 130.82 204.22 130.27 202.86 129.81 L 203.20 129.23 C 207.44 121.68 212.05 114.32 217.51 107.58 C 225.62 94.49 235.19 82.39 243.50 69.43 C 245.95 65.68 249.83 62.51 250.40 57.82 Z"/>
<path fill="#4a4b4d" d=" M 43.14 60.11 C 43.60 60.10 44.53 60.07 45.00 60.06 C 43.46 62.59 41.77 65.04 39.96 67.39 C 39.30 66.51 38.63 65.63 37.96 64.75 C 38.28 63.57 38.65 62.41 39.06 61.26 C 40.60 61.91 41.91 60.97 43.14 60.11 Z"/>
<path fill="#d5d5d5" d=" M 253.35 61.70 C 254.31 63.05 255.22 64.42 256.15 65.80 C 256.83 68.70 258.19 71.48 257.59 74.58 C 245.39 92.97 232.51 110.88 220.22 129.22 C 218.01 131.60 216.67 135.66 212.80 135.37 C 211.89 134.87 210.98 134.36 210.09 133.83 C 209.00 133.03 207.93 132.21 206.87 131.37 C 210.26 130.76 211.38 126.79 213.67 124.70 C 226.58 105.64 239.94 86.89 252.84 67.82 C 254.52 66.11 253.51 63.76 253.35 61.70 Z"/>
<path fill="#73b8e0" d=" M 116.97 65.96 C 118.90 64.98 121.31 61.90 123.39 63.98 C 122.18 66.54 120.92 69.08 119.82 71.69 C 118.44 74.86 118.26 78.39 117.69 81.75 C 112.69 83.79 111.68 89.80 108.67 93.68 C 102.71 101.61 94.94 110.86 83.88 110.21 C 82.16 109.18 80.43 108.15 78.76 107.05 C 82.46 106.03 86.63 107.20 90.00 104.99 C 94.55 102.01 99.22 98.82 101.94 93.96 C 108.45 85.43 109.34 73.76 116.97 65.96 Z"/>
<path fill="#030406" d=" M 37.96 64.75 C 38.63 65.63 39.30 66.51 39.96 67.39 C 39.98 69.45 40.46 71.45 41.60 73.19 C 41.87 73.65 42.42 74.57 42.69 75.04 C 42.90 75.35 43.32 75.96 43.53 76.27 C 43.87 76.74 44.55 77.68 44.89 78.14 C 45.45 78.83 46.02 79.51 46.62 80.17 C 53.43 89.70 63.81 95.92 72.88 103.06 C 74.76 104.50 76.71 105.86 78.76 107.05 C 80.43 108.15 82.16 109.18 83.88 110.21 C 85.53 111.23 87.21 112.19 88.88 113.19 C 90.53 114.22 92.19 115.23 93.86 116.24 C 96.31 117.71 98.92 118.89 101.49 120.11 C 102.53 120.91 103.58 121.72 104.76 122.33 C 107.36 123.78 110.08 125.03 112.77 126.33 C 115.37 127.68 118.01 128.95 120.70 130.12 C 123.62 131.53 126.60 132.80 129.56 134.13 C 131.85 135.40 134.32 136.34 136.76 137.30 C 140.62 139.18 144.64 140.71 148.69 142.15 C 151.34 143.31 153.98 144.54 156.76 145.37 C 159.44 146.29 162.12 147.23 164.77 148.24 C 168.65 149.80 172.62 151.14 176.65 152.27 C 179.97 153.43 183.37 154.36 186.75 155.36 C 191.67 156.85 196.64 158.25 201.67 159.32 C 208.34 161.20 215.17 162.50 221.95 163.91 C 222.67 164.02 224.09 164.25 224.80 164.36 C 226.31 164.61 229.33 165.11 230.84 165.36 C 233.47 165.73 236.17 166.02 238.83 166.34 C 241.44 166.67 244.12 166.99 246.76 167.28 C 252.51 167.98 258.54 168.70 264.27 167.40 C 266.20 167.05 268.13 166.71 270.04 166.24 C 270.53 166.16 271.51 166.00 272.00 165.93 C 273.01 165.75 273.99 165.49 274.94 165.12 C 275.50 164.91 276.62 164.48 277.18 164.26 C 279.29 163.42 281.23 162.22 283.16 161.03 L 284.29 161.30 C 283.88 162.51 283.46 163.71 282.99 164.90 C 279.13 166.86 274.02 166.90 271.35 170.65 C 270.08 167.31 268.31 170.41 267.04 172.02 C 267.13 167.48 263.19 171.86 262.98 174.12 C 264.68 174.15 266.13 173.47 267.04 172.02 C 267.06 172.52 267.11 173.54 267.14 174.04 C 271.02 172.44 276.42 172.96 277.67 168.02 C 277.77 172.16 279.89 166.10 281.40 169.05 C 280.82 170.44 279.88 171.63 278.99 172.84 C 274.95 175.76 274.12 180.97 272.27 185.30 C 271.06 188.52 269.38 191.63 268.98 195.11 C 266.71 199.83 264.10 204.51 262.85 209.63 C 264.22 209.31 265.50 209.18 265.22 211.07 C 264.51 212.34 263.73 213.57 262.97 214.81 C 259.68 216.21 257.08 219.41 253.31 219.49 C 251.50 219.81 252.10 221.73 251.97 223.06 C 254.18 221.70 256.89 220.89 259.42 221.86 C 255.03 225.99 248.79 226.66 243.25 228.19 C 235.75 227.97 228.26 227.94 220.78 228.19 C 219.03 228.20 215.54 228.21 213.79 228.22 C 206.50 226.62 199.19 225.01 191.76 224.10 C 184.97 222.04 177.89 221.05 171.19 218.68 C 154.67 214.89 138.89 208.68 123.05 202.78 C 111.51 198.17 100.49 192.26 88.78 188.12 C 81.54 183.17 73.38 179.76 66.06 174.92 C 63.07 173.13 60.16 171.11 56.85 169.97 C 50.28 165.59 44.30 160.41 37.77 156.00 L 37.02 155.48 C 36.04 154.52 35.06 153.55 34.04 152.63 C 31.08 150.00 27.97 147.54 25.12 144.78 C 21.93 140.22 18.79 135.62 16.09 130.75 C 15.98 130.37 15.76 129.61 15.65 129.24 C 15.82 127.40 16.00 125.57 16.24 123.75 C 17.74 127.22 18.55 131.02 20.92 134.05 C 22.00 137.72 25.23 134.38 23.73 131.89 C 20.77 127.68 18.33 122.93 17.59 117.78 C 18.32 115.38 19.18 113.01 20.24 110.73 C 20.65 112.20 20.93 113.71 21.19 115.21 C 21.53 117.27 22.05 119.34 23.04 121.19 C 23.55 122.30 24.25 123.45 25.65 122.82 C 29.86 111.18 34.97 99.78 38.91 88.10 C 37.34 85.42 35.88 82.68 34.83 79.75 C 34.92 77.73 34.90 75.70 34.85 73.68 L 35.09 72.74 C 37.05 72.72 36.33 74.46 36.39 75.74 C 36.98 77.12 37.89 78.31 38.79 79.50 C 39.04 80.78 39.40 82.04 40.85 82.36 C 41.08 83.72 41.18 85.59 42.80 86.02 C 42.97 84.10 44.84 81.62 42.93 80.09 C 42.06 80.64 41.37 81.40 40.85 82.36 C 40.88 80.51 41.28 78.53 40.43 76.80 C 39.14 74.07 38.08 71.25 36.87 68.49 C 37.20 67.23 37.57 65.99 37.96 64.75 Z"/>
<path fill="#d0d0d0" d=" M 256.15 65.80 C 257.25 67.05 258.23 68.40 259.08 69.83 C 259.35 73.16 261.25 76.15 260.63 79.61 C 247.70 98.36 234.55 116.98 221.98 135.98 C 220.89 137.67 219.96 139.44 219.05 141.22 C 218.74 140.91 218.14 140.28 217.84 139.97 C 216.20 138.39 214.46 136.93 212.80 135.37 C 216.67 135.66 218.01 131.60 220.22 129.22 C 232.51 110.88 245.39 92.97 257.59 74.58 C 258.19 71.48 256.83 68.70 256.15 65.80 Z"/>
<path fill="#92d0ed" d=" M 70.50 70.39 C 77.13 64.92 86.45 69.01 92.06 74.07 C 93.59 80.71 94.07 88.56 88.30 93.32 C 81.55 100.07 71.01 97.03 65.03 90.93 C 62.64 83.93 63.20 74.15 70.50 70.39 Z"/>
<path fill="#363637" d=" M 35.09 72.74 C 35.38 71.21 36.17 69.86 36.87 68.49 C 38.08 71.25 39.14 74.07 40.43 76.80 C 40.02 77.48 39.20 78.83 38.79 79.50 C 37.89 78.31 36.98 77.12 36.39 75.74 C 36.33 74.46 37.05 72.72 35.09 72.74 Z"/>
<path fill="#cccccd" d=" M 259.08 69.83 C 260.16 71.45 261.12 73.14 262.09 74.83 C 261.81 77.96 264.82 81.07 263.04 83.98 C 256.70 96.18 247.20 106.34 239.94 117.96 C 233.32 126.44 228.63 136.39 221.17 144.19 C 220.48 143.18 219.76 142.20 219.05 141.22 C 219.96 139.44 220.89 137.67 221.98 135.98 C 234.55 116.98 247.70 98.36 260.63 79.61 C 261.25 76.15 259.35 73.16 259.08 69.83 Z"/>
<path fill="#88c9e9" d=" M 91.97 71.01 C 95.31 73.58 96.10 77.90 98.33 81.29 C 97.05 85.54 96.68 90.22 93.83 93.82 C 90.28 98.03 85.04 100.57 79.68 101.53 C 72.59 100.68 65.52 97.75 61.12 91.92 C 58.36 86.51 51.86 84.71 48.31 79.91 C 48.41 79.35 48.62 78.23 48.72 77.67 C 49.23 77.62 50.26 77.54 50.78 77.50 C 56.57 80.72 60.30 86.48 65.03 90.93 C 71.01 97.03 81.55 100.07 88.30 93.32 C 94.07 88.56 93.59 80.71 92.06 74.07 C 92.04 73.31 92.00 71.77 91.97 71.01 Z"/>
<path fill="#9bd3ee" d=" M 75.30 72.27 C 79.84 71.30 85.85 72.34 88.00 77.01 C 91.78 82.06 89.38 91.15 83.03 93.03 C 78.74 95.55 72.46 93.04 70.00 89.01 C 64.59 83.42 69.15 74.73 75.30 72.27 Z"/>
<path fill="#e7f2f8" d=" M 117.69 81.75 C 118.26 78.39 118.44 74.86 119.82 71.69 C 122.71 78.18 122.08 85.25 121.89 92.14 C 121.12 91.12 120.45 90.03 119.79 88.95 C 118.98 86.58 118.21 84.20 117.69 81.75 Z"/>
<path fill="#525252" d=" M 33.80 74.76 C 34.06 74.49 34.59 73.95 34.85 73.68 C 34.90 75.70 34.92 77.73 34.83 79.75 C 30.06 88.40 28.32 98.28 25.92 107.76 C 23.59 109.82 24.07 113.50 21.19 115.21 C 20.93 113.71 20.65 112.20 20.24 110.73 C 24.54 98.66 29.91 86.97 33.80 74.76 Z"/>
<path fill="#e4e4e4" d=" M 30.02 78.02 C 30.39 76.02 32.34 75.58 33.80 74.76 C 29.91 86.97 24.54 98.66 20.24 110.73 C 19.18 113.01 18.32 115.38 17.59 117.78 C 15.58 121.18 14.00 125.34 15.65 129.24 C 15.76 129.61 15.98 130.37 16.09 130.75 C 14.39 133.24 15.74 136.08 16.37 138.68 C 17.88 144.40 21.98 148.91 25.96 153.10 C 26.47 155.70 26.95 158.29 27.24 160.92 C 20.93 157.39 16.70 151.00 12.95 145.03 C 7.60 136.02 10.27 125.43 14.67 116.69 C 20.93 104.27 24.62 90.78 30.02 78.02 Z"/>
<path fill="#c8c8c8" d=" M 262.09 74.83 C 263.80 77.31 264.93 80.10 266.09 82.86 C 266.18 84.80 266.62 86.73 266.58 88.68 C 252.83 108.25 239.11 127.86 225.62 147.61 C 224.98 147.72 223.71 147.96 223.08 148.07 C 222.44 146.78 221.80 145.48 221.17 144.19 C 228.63 136.39 233.32 126.44 239.94 117.96 C 247.20 106.34 256.70 96.18 263.04 83.98 C 264.82 81.07 261.81 77.96 262.09 74.83 Z"/>
<path fill="#62686a" d=" M 40.43 76.80 C 41.28 78.53 40.88 80.51 40.85 82.36 C 39.40 82.04 39.04 80.78 38.79 79.50 C 39.20 78.83 40.02 77.48 40.43 76.80 Z"/>
<path fill="#a5d6ee" d=" M 77.30 77.28 C 84.06 74.48 88.57 83.80 84.25 88.24 C 82.37 91.46 76.83 90.96 74.70 88.30 C 70.93 85.47 72.94 78.44 77.30 77.28 Z"/>
<path fill="#212121" d=" M 25.92 107.76 C 28.32 98.28 30.06 88.40 34.83 79.75 C 35.88 82.68 37.34 85.42 38.91 88.10 C 34.97 99.78 29.86 111.18 25.65 122.82 C 24.25 123.45 23.55 122.30 23.04 121.19 C 23.46 121.06 24.30 120.81 24.73 120.68 C 24.70 116.33 25.60 112.07 25.92 107.76 Z"/>
<path fill="#73797d" d=" M 40.85 82.36 C 41.37 81.40 42.06 80.64 42.93 80.09 C 44.84 81.62 42.97 84.10 42.80 86.02 C 41.18 85.59 41.08 83.72 40.85 82.36 Z"/>
<path fill="#6db1dc" d=" M 108.67 93.68 C 111.68 89.80 112.69 83.79 117.69 81.75 C 118.21 84.20 118.98 86.58 119.79 88.95 C 115.86 93.35 112.41 98.15 108.72 102.74 C 102.62 106.99 97.41 114.73 88.88 113.19 C 87.21 112.19 85.53 111.23 83.88 110.21 C 94.94 110.86 102.71 101.61 108.67 93.68 Z"/>
<path fill="#c2c2c2" d=" M 266.09 82.86 C 267.98 87.75 270.52 92.59 271.07 97.85 C 269.83 97.72 268.63 97.35 267.38 97.37 C 252.70 117.69 240.00 139.66 224.02 158.89 C 223.98 155.79 224.40 152.63 223.27 149.69 L 223.04 148.82 L 223.08 148.07 C 223.71 147.96 224.98 147.72 225.62 147.61 C 239.11 127.86 252.83 108.25 266.58 88.68 C 266.62 86.73 266.18 84.80 266.09 82.86 Z"/>
<path fill="#598ba1" d=" M 46.21 86.09 C 49.61 85.41 48.50 89.09 47.79 90.95 C 44.55 91.53 44.81 87.90 46.21 86.09 Z"/>
<path fill="#5a8da4" d=" M 50.16 89.15 C 52.83 89.16 52.83 94.84 50.16 94.85 C 48.44 93.59 48.44 90.41 50.16 89.15 Z"/>
<path fill="#67aad7" d=" M 108.72 102.74 C 112.41 98.15 115.86 93.35 119.79 88.95 C 120.45 90.03 121.12 91.12 121.89 92.14 C 122.54 93.02 123.29 93.83 124.04 94.64 C 119.93 95.97 118.37 100.62 115.25 103.25 C 109.39 109.09 102.97 116.55 93.86 116.24 C 92.19 115.23 90.53 114.22 88.88 113.19 C 97.41 114.73 102.62 106.99 108.72 102.74 Z"/>
<path fill="#5a8ca5" d=" M 53.20 93.04 C 56.49 92.37 56.94 97.36 54.86 98.91 C 51.91 98.20 52.18 95.30 53.20 93.04 Z"/>
<path fill="#60a2d3" d=" M 115.25 103.25 C 118.37 100.62 119.93 95.97 124.04 94.64 C 125.51 96.03 126.93 97.48 128.31 98.97 C 119.68 106.36 112.18 115.57 101.49 120.11 C 98.92 118.89 96.31 117.71 93.86 116.24 C 102.97 116.55 109.39 109.09 115.25 103.25 Z"/>
<path fill="#314f61" d=" M 45.22 96.09 C 52.64 103.71 61.08 110.23 69.89 116.22 C 66.23 127.62 61.35 138.78 57.01 150.01 C 56.14 153.78 52.11 150.11 50.97 148.22 C 54.06 146.92 55.50 143.79 57.00 141.00 C 59.13 136.43 62.12 132.04 62.99 127.00 C 61.33 119.63 56.11 113.14 49.71 109.26 C 46.21 108.27 43.48 112.11 41.28 114.24 C 39.49 119.17 38.55 124.41 36.42 129.22 C 36.08 127.41 35.66 125.61 35.13 123.85 C 35.11 123.41 35.08 122.52 35.07 122.07 C 38.73 113.52 41.84 104.75 45.22 96.09 Z"/>
<path fill="#5f94af" d=" M 58.13 97.14 C 61.99 97.30 60.49 100.51 59.78 103.05 C 57.59 101.98 55.63 99.02 58.13 97.14 Z"/>
<path fill="#5a9cd0" d=" M 128.31 98.97 C 130.20 100.09 132.12 101.15 133.99 102.29 C 135.34 103.14 136.75 103.91 138.15 104.66 C 125.96 108.31 117.67 120.25 104.76 122.33 C 103.58 121.72 102.53 120.91 101.49 120.11 C 112.18 115.57 119.68 106.36 128.31 98.97 Z"/>
<path fill="#5b8fab" d=" M 62.21 101.07 C 64.30 100.29 67.09 102.11 65.45 104.34 C 65.27 107.04 62.71 105.44 61.24 104.86 C 61.54 103.59 61.88 102.33 62.21 101.07 Z"/>
<path fill="#5b90ad" d=" M 68.15 104.09 C 70.52 104.67 72.37 108.29 69.79 109.87 C 66.52 110.77 66.05 105.56 68.15 104.09 Z"/>
<path fill="#5495cb" d=" M 104.76 122.33 C 117.67 120.25 125.96 108.31 138.15 104.66 C 139.36 105.20 140.56 105.77 141.77 106.31 C 143.63 107.25 145.53 108.07 147.42 108.93 C 137.57 113.46 129.11 120.39 119.57 125.49 C 117.87 125.70 114.47 126.12 112.77 126.33 C 110.08 125.03 107.36 123.78 104.76 122.33 Z"/>
<path fill="#b5b5b5" d=" M 261.09 119.08 C 264.70 115.03 266.29 109.31 270.71 106.01 C 272.47 109.85 274.52 113.86 273.84 118.23 C 273.14 116.93 273.24 114.45 271.13 115.06 C 260.05 130.13 249.72 145.76 239.26 161.27 C 237.06 163.57 233.83 164.52 230.84 165.36 C 229.33 165.11 226.31 164.61 224.80 164.36 C 228.32 163.45 231.62 161.88 233.75 158.77 C 242.83 145.51 251.56 132.02 261.09 119.08 Z"/>
<path fill="#434343" d=" M 21.19 115.21 C 24.07 113.50 23.59 109.82 25.92 107.76 C 25.60 112.07 24.70 116.33 24.73 120.68 C 24.30 120.81 23.46 121.06 23.04 121.19 C 22.05 119.34 21.53 117.27 21.19 115.21 Z"/>
<path fill="#568aa8" d=" M 73.17 108.08 C 76.26 108.79 78.03 111.11 75.80 113.92 C 71.94 114.29 71.22 110.84 73.17 108.08 Z"/>
<path fill="#36596f" d=" M 41.28 114.24 C 43.48 112.11 46.21 108.27 49.71 109.26 C 56.11 113.14 61.33 119.63 62.99 127.00 C 62.12 132.04 59.13 136.43 57.00 141.00 C 55.50 143.79 54.06 146.92 50.97 148.22 C 46.32 146.79 43.46 142.10 39.29 139.66 C 38.11 138.05 35.51 137.14 35.13 135.10 C 35.69 133.17 36.05 131.19 36.42 129.22 C 38.55 124.41 39.49 119.17 41.28 114.24 Z"/>
<path fill="#4e8ec7" d=" M 147.42 108.93 C 148.56 109.38 149.68 109.87 150.83 110.32 C 152.93 111.17 155.09 111.89 157.23 112.64 C 155.60 112.87 153.91 112.87 152.34 113.43 C 144.96 118.86 136.84 123.13 129.25 128.23 C 126.70 129.94 123.56 129.52 120.70 130.12 C 118.01 128.95 115.37 127.68 112.77 126.33 C 114.47 126.12 117.87 125.70 119.57 125.49 C 129.11 120.39 137.57 113.46 147.42 108.93 Z"/>
<path fill="#578dae" d=" M 79.17 112.08 C 80.49 112.65 81.79 113.28 82.93 114.17 C 82.96 115.90 81.77 119.49 79.70 117.31 C 77.47 116.12 78.19 113.87 79.17 112.08 Z"/>
<path fill="#4989c5" d=" M 152.34 113.43 C 153.91 112.87 155.60 112.87 157.23 112.64 C 159.25 113.23 161.25 113.93 163.23 114.65 C 157.89 119.00 151.65 121.98 146.16 126.12 C 140.87 129.25 135.71 132.89 129.56 134.13 C 126.60 132.80 123.62 131.53 120.70 130.12 C 123.56 129.52 126.70 129.94 129.25 128.23 C 136.84 123.13 144.96 118.86 152.34 113.43 Z"/>
<path fill="#4583c1" d=" M 146.16 126.12 C 151.65 121.98 157.89 119.00 163.23 114.65 C 163.82 114.79 164.99 115.07 165.58 115.21 C 167.64 116.04 169.75 116.78 171.87 117.44 C 172.97 117.86 174.07 118.25 175.16 118.70 C 163.85 122.01 155.09 131.22 144.66 136.63 C 142.03 136.88 139.39 137.10 136.76 137.30 C 134.32 136.34 131.85 135.40 129.56 134.13 C 135.71 132.89 140.87 129.25 146.16 126.12 Z"/>
<path fill="#afafaf" d=" M 271.13 115.06 C 273.24 114.45 273.14 116.93 273.84 118.23 C 274.22 120.86 274.95 123.44 275.00 126.10 C 274.05 125.19 272.95 122.60 271.85 124.82 C 263.57 136.86 254.94 148.66 246.72 160.74 C 244.40 162.97 242.45 166.34 238.83 166.34 C 236.17 166.02 233.47 165.73 230.84 165.36 C 233.83 164.52 237.06 163.57 239.26 161.27 C 249.72 145.76 260.05 130.13 271.13 115.06 Z"/>
<path fill="#5287ab" d=" M 85.20 116.08 C 89.06 115.71 89.78 119.16 87.83 121.92 C 84.74 121.21 82.97 118.89 85.20 116.08 Z"/>
<path fill="#707070" d=" M 15.65 129.24 C 14.00 125.34 15.58 121.18 17.59 117.78 C 18.33 122.93 20.77 127.68 23.73 131.89 C 22.72 132.51 21.82 133.28 20.92 134.05 C 18.55 131.02 17.74 127.22 16.24 123.75 C 16.00 125.57 15.82 127.40 15.65 129.24 Z"/>
<path fill="#3d7bbd" d=" M 144.66 136.63 C 155.09 131.22 163.85 122.01 175.16 118.70 C 176.72 119.30 178.26 119.92 179.85 120.44 C 181.95 121.18 184.06 121.87 186.17 122.60 C 181.10 123.70 177.09 127.06 172.90 129.88 C 164.72 133.87 158.19 141.36 148.69 142.15 C 144.64 140.71 140.62 139.18 136.76 137.30 C 139.39 137.10 142.03 136.88 144.66 136.63 Z"/>
<path fill="#4a7da3" d=" M 91.21 120.06 C 93.14 119.91 97.33 120.63 95.44 123.34 C 95.14 126.26 91.89 124.58 90.24 123.86 C 90.55 122.58 90.88 121.32 91.21 120.06 Z"/>
<path fill="#3874b9" d=" M 172.90 129.88 C 177.09 127.06 181.10 123.70 186.17 122.60 C 186.83 122.80 188.15 123.19 188.82 123.39 C 190.60 124.23 192.41 125.01 194.23 125.77 C 188.40 128.00 183.54 132.04 178.21 135.19 C 171.28 139.04 165.22 145.40 156.76 145.37 C 153.98 144.54 151.34 143.31 148.69 142.15 C 158.19 141.36 164.72 133.87 172.90 129.88 Z"/>
<path fill="#495156" d=" M 35.13 135.10 C 29.89 133.47 32.43 126.35 35.13 123.85 C 35.66 125.61 36.08 127.41 36.42 129.22 C 36.05 131.19 35.69 133.17 35.13 135.10 Z"/>
<path fill="#243f54" d=" M 81.25 124.03 C 84.41 124.86 87.69 127.03 90.00 129.13 C 88.41 128.80 86.84 128.35 85.22 128.15 C 83.00 133.13 77.88 136.20 76.54 141.64 C 74.47 148.01 70.96 154.15 70.87 161.00 C 69.67 161.17 67.86 160.49 68.11 159.02 C 72.26 147.28 77.62 135.94 81.25 124.03 Z"/>
<path fill="#43769f" d=" M 98.20 124.09 C 99.89 123.70 101.41 124.61 102.92 125.20 C 103.04 127.72 101.26 130.27 98.65 128.44 C 95.88 128.25 97.65 125.58 98.20 124.09 Z"/>
<path fill="#a7a7a7" d=" M 271.85 124.82 C 272.95 122.60 274.05 125.19 275.00 126.10 C 275.01 127.78 275.02 131.14 275.02 132.82 C 274.36 132.97 273.05 133.27 272.39 133.42 C 264.62 144.68 256.74 155.90 248.70 166.93 C 248.22 167.02 247.25 167.19 246.76 167.28 C 244.12 166.99 241.44 166.67 238.83 166.34 C 242.45 166.34 244.40 162.97 246.72 160.74 C 254.94 148.66 263.57 136.86 271.85 124.82 Z"/>
<path fill="#326eb5" d=" M 178.21 135.19 C 183.54 132.04 188.40 128.00 194.23 125.77 C 194.63 125.91 195.42 126.18 195.81 126.32 C 198.28 127.27 200.70 128.34 203.20 129.23 L 202.86 129.81 C 193.29 135.48 183.95 141.57 174.67 147.67 C 171.37 147.92 168.08 148.08 164.77 148.24 C 162.12 147.23 159.44 146.29 156.76 145.37 C 165.22 145.40 171.28 139.04 178.21 135.19 Z"/>
<path fill="#40739e" d=" M 105.22 127.03 C 107.27 127.29 111.29 128.67 109.44 131.34 C 109.00 134.55 105.67 131.93 104.22 130.90 C 104.53 129.60 104.88 128.32 105.22 127.03 Z"/>
<path fill="#244360" d=" M 85.22 128.15 C 86.84 128.35 88.41 128.80 90.00 129.13 C 94.55 131.05 99.08 133.16 102.94 136.29 C 103.75 137.89 103.16 139.45 102.36 140.90 C 106.11 144.97 111.22 148.42 112.82 153.98 C 110.85 161.92 106.74 169.30 101.87 175.82 C 101.13 175.92 99.64 176.12 98.89 176.22 C 90.73 172.57 82.71 168.54 74.95 164.11 C 73.89 162.94 71.06 162.92 70.87 161.00 C 70.96 154.15 74.47 148.01 76.54 141.64 C 77.88 136.20 83.00 133.13 85.22 128.15 Z"/>
<path fill="#2c67b1" d=" M 174.67 147.67 C 183.95 141.57 193.29 135.48 202.86 129.81 C 204.22 130.27 205.54 130.82 206.87 131.37 C 207.93 132.21 209.00 133.03 210.09 133.83 C 200.53 139.57 191.46 146.15 181.73 151.56 C 179.99 151.50 178.23 151.37 176.65 152.27 C 172.62 151.14 168.65 149.80 164.77 148.24 C 168.08 148.08 171.37 147.92 174.67 147.67 Z"/>
<path fill="#bababa" d=" M 16.09 130.75 C 18.79 135.62 21.93 140.22 25.12 144.78 C 25.00 147.59 25.49 150.35 25.96 153.10 C 21.98 148.91 17.88 144.40 16.37 138.68 C 15.74 136.08 14.39 133.24 16.09 130.75 Z"/>
<path fill="#3c6e9b" d=" M 112.20 131.05 C 113.89 130.75 115.41 131.59 116.91 132.20 C 117.26 133.86 116.41 135.37 115.85 136.86 C 114.30 136.24 112.79 135.50 111.29 134.79 C 111.56 133.53 111.89 132.29 112.20 131.05 Z"/>
<path fill="#919191" d=" M 20.92 134.05 C 21.82 133.28 22.72 132.51 23.73 131.89 C 25.23 134.38 22.00 137.72 20.92 134.05 Z"/>
<path fill="#a1a1a1" d=" M 272.39 133.42 C 273.05 133.27 274.36 132.97 275.02 132.82 C 274.98 136.17 274.73 139.53 273.95 142.79 C 267.02 150.15 262.57 159.38 255.90 166.94 C 254.10 166.94 250.50 166.93 248.70 166.93 C 256.74 155.90 264.62 144.68 272.39 133.42 Z"/>
<path fill="#010102" d=" M 89.16 134.01 C 92.36 134.38 93.95 137.88 96.25 139.75 C 101.07 145.41 105.74 151.64 108.03 158.79 C 105.01 159.18 102.08 160.24 99.00 160.03 C 93.99 159.99 88.99 159.97 83.99 160.01 C 81.75 159.86 77.26 161.16 77.37 158.25 C 80.12 149.66 84.43 141.65 89.16 134.01 Z"/>
<path fill="#386997" d=" M 120.15 134.14 C 121.75 134.78 123.29 135.55 124.85 136.27 C 125.11 138.76 123.19 141.25 120.66 139.44 C 117.69 139.11 119.50 135.82 120.15 134.14 Z"/>
<path fill="#2761ad" d=" M 181.73 151.56 C 191.46 146.15 200.53 139.57 210.09 133.83 C 210.98 134.36 211.89 134.87 212.80 135.37 C 214.46 136.93 216.20 138.39 217.84 139.97 C 206.90 143.89 198.85 154.76 186.75 155.36 C 183.37 154.36 179.97 153.43 176.65 152.27 C 178.23 151.37 179.99 151.50 181.73 151.56 Z"/>
<path fill="#1e3a56" d=" M 102.94 136.29 C 108.29 137.62 113.53 141.04 118.83 143.28 C 119.17 144.63 119.08 146.10 118.36 147.32 C 113.81 157.70 110.35 168.51 105.75 178.87 C 103.21 179.31 100.89 177.54 98.89 176.22 C 99.64 176.12 101.13 175.92 101.87 175.82 C 106.74 169.30 110.85 161.92 112.82 153.98 C 111.22 148.42 106.11 144.97 102.36 140.90 C 103.16 139.45 103.75 137.89 102.94 136.29 Z"/>
<path fill="#3d3d3d" d=" M 26.19 137.08 C 29.51 136.39 29.11 140.17 27.80 142.01 C 25.62 140.99 24.56 139.20 26.19 137.08 Z"/>
<path fill="#346494" d=" M 127.20 138.05 C 129.63 137.83 133.09 138.85 131.98 141.95 C 131.53 145.51 128.15 142.37 126.28 141.79 C 126.56 140.53 126.89 139.29 127.20 138.05 Z"/>
<path fill="#5b5b5b" d=" M 30.17 140.03 C 32.83 140.60 32.83 145.40 30.17 145.97 C 29.01 144.03 29.01 141.97 30.17 140.03 Z"/>
<path fill="#205aa9" d=" M 186.75 155.36 C 198.85 154.76 206.90 143.89 217.84 139.97 C 218.14 140.28 218.74 140.91 219.05 141.22 C 219.76 142.20 220.48 143.18 221.17 144.19 C 221.80 145.48 222.44 146.78 223.08 148.07 L 223.04 148.82 C 215.14 150.63 209.68 157.62 201.67 159.32 C 196.64 158.25 191.67 156.85 186.75 155.36 Z"/>
<path fill="#316194" d=" M 135.22 141.03 C 137.61 141.30 141.08 142.80 139.88 145.80 C 138.40 148.23 135.81 145.98 134.22 144.90 C 134.53 143.60 134.88 142.32 135.22 141.03 Z"/>
<path fill="#979797" d=" M 255.90 166.94 C 262.57 159.38 267.02 150.15 273.95 142.79 C 273.58 150.74 271.57 158.47 270.04 166.24 C 268.13 166.71 266.20 167.05 264.27 167.40 C 261.48 167.22 258.69 167.07 255.90 166.94 Z"/>
<path fill="#6c6f70" d=" M 34.21 144.13 C 37.44 143.31 37.20 147.17 35.80 148.91 C 32.95 149.78 31.89 145.33 34.21 144.13 Z"/>
<path fill="#636363" d=" M 25.12 144.78 C 27.97 147.54 31.08 150.00 34.04 152.63 C 28.51 155.27 36.30 166.77 28.96 166.16 C 28.36 164.42 27.87 162.65 27.24 160.92 C 26.95 158.29 26.47 155.70 25.96 153.10 C 25.49 150.35 25.00 147.59 25.12 144.78 Z"/>
<path fill="#2e5f95" d=" M 143.19 145.11 C 145.26 144.55 148.66 145.03 147.99 147.95 C 147.66 151.27 143.97 149.09 142.02 148.78 C 142.11 147.48 142.73 146.30 143.19 145.11 Z"/>
<path fill="#3a627f" d=" M 38.20 147.00 C 40.47 147.92 42.41 151.16 39.79 152.87 C 36.09 153.63 36.89 148.95 38.20 147.00 Z"/>
<path fill="#2a5a90" d=" M 151.19 148.11 C 153.27 147.54 156.66 148.03 155.99 150.95 C 155.68 154.10 151.89 152.83 150.08 151.79 C 149.98 150.47 150.78 149.31 151.19 148.11 Z"/>
<path fill="#1951a3" d=" M 201.67 159.32 C 209.68 157.62 215.14 150.63 223.04 148.82 L 223.27 149.69 C 223.19 152.89 223.07 156.12 223.18 159.33 C 222.81 160.87 222.37 162.39 221.95 163.91 C 215.17 162.50 208.34 161.20 201.67 159.32 Z"/>
<path fill="#4f75ae" d=" M 223.27 149.69 C 224.40 152.63 223.98 155.79 224.02 158.89 L 223.18 159.33 C 223.07 156.12 223.19 152.89 223.27 149.69 Z"/>
<path fill="#3a6485" d=" M 43.15 151.09 C 45.85 151.79 46.51 154.72 44.84 156.86 C 41.65 156.84 40.96 152.97 43.15 151.09 Z"/>
<path fill="#15304f" d=" M 134.25 151.13 C 138.18 150.99 141.61 153.61 145.29 154.72 C 152.48 157.29 159.53 160.37 166.93 162.31 L 167.29 163.17 C 164.54 165.29 165.12 168.24 166.46 171.05 C 162.94 172.05 159.66 168.35 155.91 169.55 C 148.60 167.70 141.86 157.54 134.13 163.16 C 129.96 170.79 126.27 179.11 125.89 187.94 C 124.18 187.19 120.16 187.89 121.10 185.05 C 125.30 173.68 129.76 162.38 134.25 151.13 Z"/>
<path fill="#26558e" d=" M 159.19 151.10 C 161.19 150.64 163.11 151.38 164.92 152.17 C 164.35 153.49 163.71 154.78 162.84 155.93 C 161.20 155.70 159.63 155.16 158.02 154.78 C 158.11 153.48 158.73 152.30 159.19 151.10 Z"/>
<path fill="#7a7a7a" d=" M 28.96 166.16 C 36.30 166.77 28.51 155.27 34.04 152.63 C 35.06 153.55 36.04 154.52 37.02 155.48 C 33.80 160.62 33.22 166.77 35.63 172.33 C 41.98 191.01 52.77 208.29 67.22 221.78 C 69.73 223.88 71.60 227.19 74.98 228.02 C 81.23 235.09 89.96 239.32 98.02 244.00 C 134.24 262.15 179.69 262.66 214.93 241.92 C 219.07 239.82 225.35 235.06 223.30 229.76 L 223.00 229.01 C 225.70 229.03 228.41 229.04 231.13 229.05 C 228.46 232.38 225.81 235.74 222.76 238.74 C 220.54 239.70 220.69 242.12 222.09 243.56 C 205.34 253.97 186.01 259.35 166.60 262.00 L 143.50 262.00 C 141.02 260.72 138.06 260.84 135.41 260.42 C 85.47 253.66 41.71 214.91 28.96 166.16 Z"/>
<path fill="#214d85" d=" M 168.11 153.16 C 169.76 153.70 171.52 154.06 172.95 155.11 C 172.38 156.45 171.72 157.77 170.84 158.93 C 169.20 158.71 167.63 158.16 166.03 157.78 C 166.06 156.03 167.16 154.55 168.11 153.16 Z"/>
<path fill="#365d7e" d=" M 48.21 155.09 C 51.96 154.84 52.39 158.85 49.87 160.97 C 47.15 160.11 46.45 157.29 48.21 155.09 Z"/>
<path fill="#8e8e8e" d=" M 35.63 172.33 C 33.22 166.77 33.80 160.62 37.02 155.48 L 37.77 156.00 C 38.41 158.62 39.02 161.25 39.74 163.85 C 36.87 164.46 36.52 168.73 37.17 170.90 C 40.99 185.04 48.79 197.80 57.60 209.35 C 62.68 216.22 69.77 221.27 74.98 228.02 C 71.60 227.19 69.73 223.88 67.22 221.78 C 52.77 208.29 41.98 191.01 35.63 172.33 Z"/>
<path fill="#3a6b98" d=" M 37.77 156.00 C 44.30 160.41 50.28 165.59 56.85 169.97 C 57.00 170.39 57.32 171.24 57.47 171.67 C 64.33 177.80 71.35 183.81 79.00 188.94 C 78.62 189.91 78.27 190.89 77.93 191.87 C 76.34 191.15 74.73 190.46 73.12 189.79 C 70.52 188.03 67.81 186.45 65.14 184.83 C 60.62 181.28 56.56 176.85 51.09 174.78 C 49.54 173.00 47.94 171.22 45.94 169.93 C 44.35 168.82 42.66 167.88 40.95 166.97 C 40.53 165.93 40.12 164.90 39.74 163.85 C 39.02 161.25 38.41 158.62 37.77 156.00 Z"/>
<path fill="#1f4d8a" d=" M 176.20 156.12 C 177.83 156.24 179.38 156.87 180.98 157.22 C 180.60 158.87 180.38 161.71 177.99 161.02 C 175.05 161.80 173.82 157.48 176.20 156.12 Z"/>
<path fill="#424141" d=" M 283.09 155.81 C 283.88 156.89 284.60 158.03 285.32 159.17 C 285.06 159.70 284.54 160.77 284.29 161.30 L 283.16 161.03 C 283.08 159.29 283.04 157.55 283.09 155.81 Z"/>
<path fill="#2f5473" d=" M 53.22 159.02 C 54.53 159.12 55.71 159.74 56.92 160.19 C 57.26 161.87 56.39 163.40 55.83 164.92 C 54.57 164.37 53.30 163.78 52.22 162.90 C 52.53 161.60 52.89 160.31 53.22 159.02 Z"/>
<path fill="#1b4885" d=" M 184.20 159.14 C 186.01 158.52 189.85 159.00 188.70 161.71 C 188.36 166.80 179.55 162.19 184.20 159.14 Z"/>
<path fill="#101f2d" d=" M 83.99 160.01 C 88.99 159.97 93.99 159.99 99.00 160.03 L 99.00 160.99 C 95.25 160.99 87.75 160.99 84.01 160.99 L 83.99 160.01 Z"/>
<path fill="#15345b" d=" M 134.13 163.16 C 141.86 157.54 148.60 167.70 155.91 169.55 C 158.20 172.12 161.15 174.91 160.00 178.87 C 152.25 183.64 145.09 190.24 135.90 191.95 C 132.57 191.11 128.26 189.84 125.89 187.94 C 126.27 179.11 129.96 170.79 134.13 163.16 Z"/>
<path fill="#18488a" d=" M 192.20 161.09 C 193.88 160.70 195.41 161.61 196.92 162.20 C 197.04 164.72 195.26 167.27 192.65 165.44 C 189.88 165.25 191.65 162.57 192.20 161.09 Z"/>
<path fill="#2b4e6d" d=" M 59.20 163.10 C 63.26 161.78 63.68 166.46 61.84 168.91 C 59.24 167.78 56.84 165.92 59.20 163.10 Z"/>
<path fill="#0d274c" d=" M 167.29 163.17 C 170.93 163.07 174.33 165.21 177.82 166.16 C 173.22 178.10 168.67 190.16 163.84 201.95 C 161.29 201.11 157.81 200.82 155.98 199.12 C 157.35 198.91 158.94 199.06 159.87 197.82 C 163.85 192.81 166.80 187.04 169.19 181.12 C 170.92 177.66 169.35 173.36 166.46 171.05 C 165.12 168.24 164.54 165.29 167.29 163.17 Z"/>
<path fill="#144080" d=" M 200.20 163.09 C 201.88 162.70 203.40 163.60 204.90 164.20 C 206.43 167.89 200.95 169.50 199.13 166.79 C 198.85 165.46 199.84 164.31 200.20 163.09 Z"/>
<path fill="#a2a2a2" d=" M 37.17 170.90 C 36.52 168.73 36.87 164.46 39.74 163.85 C 40.12 164.90 40.53 165.93 40.95 166.97 C 41.20 167.92 41.46 168.88 41.72 169.84 C 38.19 172.39 41.27 176.84 42.06 179.98 C 52.11 203.58 69.73 224.15 92.08 236.88 C 123.47 256.10 164.06 259.68 198.38 246.46 C 203.15 244.17 209.01 242.84 212.09 238.11 C 211.54 238.05 210.43 237.92 209.88 237.86 C 211.32 236.95 212.79 236.09 214.26 235.23 C 215.22 234.73 216.16 234.21 217.10 233.67 C 219.24 236.68 214.58 239.71 212.72 241.68 C 174.65 262.33 125.34 260.61 88.97 237.05 C 84.05 234.44 80.10 230.19 74.98 228.02 C 69.77 221.27 62.68 216.22 57.60 209.35 C 48.79 197.80 40.99 185.04 37.17 170.90 Z"/>
<path fill="#113d81" d=" M 208.20 165.09 C 209.88 164.70 211.41 165.61 212.92 166.20 C 213.04 168.72 211.26 171.27 208.65 169.44 C 205.88 169.25 207.65 166.57 208.20 165.09 Z"/>
<path fill="#555555" d=" M 271.35 170.65 C 274.02 166.90 279.13 166.86 282.99 164.90 L 282.71 165.76 C 282.28 166.86 281.90 167.98 281.40 169.05 C 279.89 166.10 277.77 172.16 277.67 168.02 C 276.42 172.96 271.02 172.44 267.14 174.04 C 267.11 173.54 267.06 172.52 267.04 172.02 C 268.31 170.41 270.08 167.31 271.35 170.65 Z"/>
<path fill="#dfdfdf" d=" M 281.40 169.05 C 281.90 167.98 282.28 166.86 282.71 165.76 C 283.65 170.39 284.95 175.36 282.86 179.91 C 278.34 189.89 274.19 200.04 270.53 210.37 C 268.38 217.97 266.17 225.79 260.95 231.95 C 251.85 239.58 239.26 240.96 227.85 239.85 C 230.21 238.23 232.57 236.62 234.87 234.91 C 245.24 235.25 259.60 231.64 262.02 219.91 C 262.47 218.24 262.77 216.53 262.97 214.81 C 263.73 213.57 264.51 212.34 265.22 211.07 C 267.95 203.78 270.93 196.52 273.17 189.06 C 275.40 183.78 278.28 178.60 278.99 172.84 C 279.88 171.63 280.82 170.44 281.40 169.05 Z"/>
<path fill="#4985bd" d=" M 40.95 166.97 C 42.66 167.88 44.35 168.82 45.94 169.93 C 45.12 171.42 44.56 173.31 46.77 174.23 C 50.31 177.89 53.85 181.86 55.62 186.72 C 54.41 188.84 53.16 190.95 52.94 193.44 C 48.03 186.20 44.56 178.09 41.72 169.84 C 41.46 168.88 41.20 167.92 40.95 166.97 Z"/>
<path fill="#2b4f72" d=" M 65.20 167.09 C 66.82 166.72 68.31 167.54 69.76 168.14 C 69.45 169.42 69.11 170.68 68.79 171.94 C 67.10 172.24 65.58 171.40 64.08 170.80 C 63.99 169.46 64.79 168.30 65.20 167.09 Z"/>
<path fill="#27497e" d=" M 216.23 167.13 C 223.75 163.48 220.65 169.63 218.90 171.78 C 215.97 171.91 213.21 169.42 216.23 167.13 Z"/>
<path fill="#434343" d=" M 246.76 167.28 C 247.25 167.19 248.22 167.02 248.70 166.93 C 250.50 166.93 254.10 166.94 255.90 166.94 C 258.69 167.07 261.48 167.22 264.27 167.40 C 258.54 168.70 252.51 167.98 246.76 167.28 Z"/>
<path fill="#8a8a8a" d=" M 223.19 168.11 C 224.40 167.90 225.59 167.92 226.78 168.19 C 229.10 169.23 226.55 171.53 225.83 172.93 C 222.58 173.17 221.11 170.74 223.19 168.11 Z"/>
<path fill="#102d57" d=" M 155.91 169.55 C 159.66 168.35 162.94 172.05 166.46 171.05 C 169.35 173.36 170.92 177.66 169.19 181.12 C 166.80 187.04 163.85 192.81 159.87 197.82 C 158.94 199.06 157.35 198.91 155.98 199.12 C 149.05 198.38 143.00 194.15 136.17 192.72 L 135.90 191.95 C 145.09 190.24 152.25 183.64 160.00 178.87 C 161.15 174.91 158.20 172.12 155.91 169.55 Z"/>
<path fill="#858585" d=" M 230.20 169.10 C 231.46 168.97 232.73 168.94 234.00 169.01 C 234.56 171.20 233.66 175.36 230.65 173.44 C 228.07 173.21 230.16 170.62 230.20 169.10 Z"/>
<path fill="#b2b4b7" d=" M 42.06 179.98 C 41.27 176.84 38.19 172.39 41.72 169.84 C 44.56 178.09 48.03 186.20 52.94 193.44 C 54.74 196.36 56.35 199.46 58.54 202.12 C 59.83 203.84 61.13 205.55 62.60 207.12 C 64.77 209.96 67.10 212.66 69.66 215.17 C 71.65 217.19 73.64 219.22 75.73 221.14 C 77.26 222.57 79.00 223.74 80.61 225.08 C 83.17 227.28 86.08 229.01 88.78 231.05 C 91.36 232.81 94.05 234.44 96.83 235.91 C 106.37 240.86 116.23 245.72 127.03 247.15 L 126.71 247.81 C 126.57 248.10 126.29 248.67 126.15 248.96 C 131.61 250.39 137.22 251.19 142.77 252.25 C 162.73 255.01 183.19 251.39 201.67 243.66 C 202.90 242.87 206.27 242.24 203.94 240.58 C 205.62 239.75 207.36 239.02 209.06 238.23 L 209.88 237.86 C 210.43 237.92 211.54 238.05 212.09 238.11 C 209.01 242.84 203.15 244.17 198.38 246.46 C 164.06 259.68 123.47 256.10 92.08 236.88 C 69.73 224.15 52.11 203.58 42.06 179.98 Z"/>
<path fill="#417ebb" d=" M 45.94 169.93 C 47.94 171.22 49.54 173.00 51.09 174.78 C 54.30 182.14 63.48 185.55 65.74 193.79 C 64.34 197.36 59.80 198.48 58.54 202.12 C 56.35 199.46 54.74 196.36 52.94 193.44 C 53.16 190.95 54.41 188.84 55.62 186.72 C 53.85 181.86 50.31 177.89 46.77 174.23 C 44.56 173.31 45.12 171.42 45.94 169.93 Z"/>
<path fill="#2c5887" d=" M 56.85 169.97 C 60.16 171.11 63.07 173.13 66.06 174.92 C 73.38 179.76 81.54 183.17 88.78 188.12 C 90.63 189.71 92.60 191.17 94.46 192.76 C 94.47 195.62 91.61 194.38 89.79 194.65 C 86.30 192.55 82.86 190.32 79.00 188.94 C 71.35 183.81 64.33 177.80 57.47 171.67 C 57.32 171.24 57.00 170.39 56.85 169.97 Z"/>
<path fill="#2c547b" d=" M 72.17 170.08 C 73.78 170.96 76.69 171.51 75.98 173.95 C 75.85 176.81 72.67 175.77 71.09 174.80 C 70.73 173.11 71.61 171.59 72.17 170.08 Z"/>
<path fill="#8a8a8a" d=" M 237.18 170.12 C 238.47 169.98 239.77 169.95 241.07 170.02 C 240.55 171.68 240.50 174.70 237.99 174.01 C 234.65 175.00 236.60 171.74 237.18 170.12 Z"/>
<path fill="#6c6c6c" d=" M 262.98 174.12 C 263.19 171.86 267.13 167.48 267.04 172.02 C 266.13 173.47 264.68 174.15 262.98 174.12 Z"/>
<path fill="#092147" d=" M 194.15 171.03 C 201.52 172.06 208.63 174.94 216.13 175.12 L 215.67 175.68 C 212.96 177.56 211.19 180.48 209.05 182.94 C 203.65 182.84 197.06 179.97 193.19 185.21 C 190.36 191.24 186.47 197.40 186.01 204.20 C 185.23 205.33 184.47 206.46 183.78 207.64 C 182.55 207.42 181.35 207.12 180.14 206.86 C 184.60 194.85 189.41 182.89 194.15 171.03 Z"/>
<path fill="#7e7e7e" d=" M 243.18 171.12 C 244.47 170.98 245.77 170.95 247.07 171.02 C 246.55 172.68 246.50 175.70 243.99 175.01 C 240.65 176.00 242.60 172.74 243.18 171.12 Z"/>
<path fill="#818181" d=" M 249.18 171.13 C 250.46 170.99 251.74 170.94 253.03 170.99 C 252.12 173.27 250.92 175.95 247.93 175.00 C 248.12 173.64 248.67 172.38 249.18 171.13 Z"/>
<path fill="#777777" d=" M 255.17 171.12 C 258.77 169.80 257.48 172.65 256.78 174.88 C 255.51 175.01 254.24 175.05 252.97 175.01 C 253.60 173.66 254.21 172.28 255.17 171.12 Z"/>
<path fill="#737373" d=" M 260.20 171.15 C 260.91 171.11 262.32 171.01 263.02 170.96 C 262.08 172.65 261.54 175.62 258.99 175.02 C 259.00 173.62 258.72 171.93 260.20 171.15 Z"/>
<path fill="#474747" d=" M 272.27 185.30 C 274.12 180.97 274.95 175.76 278.99 172.84 C 278.28 178.60 275.40 183.78 273.17 189.06 C 271.57 190.93 270.36 193.08 268.98 195.11 C 269.38 191.63 271.06 188.52 272.27 185.30 Z"/>
<path fill="#29517a" d=" M 79.21 174.14 C 82.34 173.68 83.91 177.66 81.79 179.91 C 78.96 180.40 76.33 175.84 79.21 174.14 Z"/>
<path fill="#3b77b6" d=" M 51.09 174.78 C 56.56 176.85 60.62 181.28 65.14 184.83 C 68.20 189.18 74.41 193.62 72.71 199.63 C 69.21 201.95 65.11 203.61 62.60 207.12 C 61.13 205.55 59.83 203.84 58.54 202.12 C 59.80 198.48 64.34 197.36 65.74 193.79 C 63.48 185.55 54.30 182.14 51.09 174.78 Z"/>
<path fill="#515151" d=" M 209.05 182.94 C 211.19 180.48 212.96 177.56 215.67 175.68 C 220.86 176.05 225.91 177.45 231.06 178.19 C 229.11 181.95 227.79 185.88 229.08 190.06 C 227.22 197.81 223.13 205.04 220.61 212.68 C 219.78 215.61 213.44 214.78 212.81 212.93 C 215.80 205.43 221.83 198.66 221.84 190.27 C 218.49 186.58 213.65 184.61 209.05 182.94 Z"/>
<path fill="#4b4b4b" d=" M 264.93 178.98 C 265.87 177.39 268.48 177.96 270.10 177.18 C 266.84 185.75 264.16 194.74 259.82 202.78 C 256.84 206.23 253.82 209.70 251.70 213.75 C 249.79 214.33 247.88 215.04 245.85 214.95 C 249.58 212.68 251.96 208.88 254.40 205.36 C 257.95 199.70 261.89 193.94 262.94 187.20 C 262.48 187.12 261.56 186.97 261.10 186.89 C 262.37 184.25 263.69 181.64 264.93 178.98 Z"/>
<path fill="#274f7a" d=" M 86.21 178.14 C 90.04 177.59 90.79 181.22 88.83 183.92 C 86.09 183.41 83.16 180.34 86.21 178.14 Z"/>
<path fill="#454545" d=" M 231.06 178.19 C 231.81 178.14 233.33 178.04 234.08 177.99 C 232.30 181.88 231.64 186.86 229.08 190.06 C 227.79 185.88 229.11 181.95 231.06 178.19 Z"/>
<path fill="#2c2c2c" d=" M 245.98 179.03 C 248.80 179.10 254.43 179.22 257.25 179.29 C 253.54 179.73 249.82 179.98 246.09 180.06 L 245.98 179.03 Z"/>
<path fill="#424242" d=" M 257.25 179.29 C 259.80 179.06 262.36 178.96 264.93 178.98 C 263.69 181.64 262.37 184.25 261.10 186.89 C 260.38 188.27 259.68 189.67 258.89 191.01 C 254.87 193.05 252.49 186.68 248.05 189.00 C 244.51 189.88 242.96 193.93 242.06 197.03 C 240.20 202.86 237.93 208.76 237.92 214.97 C 235.97 215.01 234.03 215.01 232.09 215.03 C 236.10 203.26 241.23 191.89 245.26 180.13 L 246.09 180.06 C 249.82 179.98 253.54 179.73 257.25 179.29 Z"/>
<path fill="#224974" d=" M 93.15 181.14 C 94.70 181.76 96.20 182.50 97.71 183.21 C 97.44 184.46 97.11 185.70 96.80 186.95 C 95.11 187.24 93.59 186.41 92.09 185.80 C 91.73 184.14 92.59 182.63 93.15 181.14 Z"/>
<path fill="#0c2752" d=" M 193.19 185.21 C 197.06 179.97 203.65 182.84 209.05 182.94 C 201.98 190.56 194.91 198.74 186.01 204.20 C 186.47 197.40 190.36 191.24 193.19 185.21 Z"/>
<path fill="#5f5f5f" d=" M 209.05 182.94 C 213.65 184.61 218.49 186.58 221.84 190.27 C 221.83 198.66 215.80 205.43 212.81 212.93 C 202.94 212.56 193.44 209.44 183.78 207.64 C 184.47 206.46 185.23 205.33 186.01 204.20 C 194.91 198.74 201.98 190.56 209.05 182.94 Z"/>
<path fill="#3470b5" d=" M 65.14 184.83 C 67.81 186.45 70.52 188.03 73.12 189.79 C 76.19 194.21 81.76 197.90 81.85 203.76 C 78.53 208.34 70.15 208.74 69.66 215.17 C 67.10 212.66 64.77 209.96 62.60 207.12 C 65.11 203.61 69.21 201.95 72.71 199.63 C 74.41 193.62 68.20 189.18 65.14 184.83 Z"/>
<path fill="#1e416b" d=" M 100.20 185.09 C 101.88 184.70 103.41 185.60 104.91 186.20 C 105.27 187.86 104.41 189.37 103.85 190.86 C 102.25 190.21 100.71 189.45 99.15 188.73 C 98.91 187.42 99.84 186.28 100.20 185.09 Z"/>
<path fill="#5c5c5c" d=" M 261.10 186.89 C 261.56 186.97 262.48 187.12 262.94 187.20 C 261.89 193.94 257.95 199.70 254.40 205.36 C 251.96 208.88 249.58 212.68 245.85 214.95 C 245.39 214.97 244.46 214.99 244.00 215.01 C 243.22 214.99 241.65 214.95 240.86 214.94 C 247.93 207.83 253.74 199.58 258.89 191.01 C 259.68 189.67 260.38 188.27 261.10 186.89 Z"/>
<path fill="#1c467b" d=" M 88.78 188.12 C 100.49 192.26 111.51 198.17 123.05 202.78 C 123.15 204.74 124.97 205.63 126.23 206.83 C 123.06 206.93 119.90 206.54 116.74 206.28 C 109.00 202.33 101.76 197.45 94.46 192.76 C 92.60 191.17 90.63 189.71 88.78 188.12 Z"/>
<path fill="#18385f" d=" M 108.15 188.19 C 110.14 188.82 114.38 189.38 112.44 192.34 C 112.10 195.33 108.76 193.50 107.09 192.80 C 106.72 191.15 107.57 189.66 108.15 188.19 Z"/>
<path fill="#2a5e9c" d=" M 79.00 188.94 C 82.86 190.32 86.30 192.55 89.79 194.65 C 95.32 199.00 101.29 202.75 107.10 206.72 C 106.51 207.00 105.33 207.55 104.74 207.83 C 101.86 206.39 98.90 205.12 95.89 204.00 C 92.83 201.61 89.37 199.79 85.95 198.00 C 83.25 195.98 80.62 193.89 77.93 191.87 C 78.27 190.89 78.62 189.91 79.00 188.94 Z"/>
<path fill="#484848" d=" M 242.06 197.03 C 242.96 193.93 244.51 189.88 248.05 189.00 C 252.49 186.68 254.87 193.05 258.89 191.01 C 253.74 199.58 247.93 207.83 240.86 214.94 C 240.12 214.95 238.65 214.96 237.92 214.97 C 237.93 208.76 240.20 202.86 242.06 197.03 Z"/>
<path fill="#787878" d=" M 268.98 195.11 C 270.36 193.08 271.57 190.93 273.17 189.06 C 270.93 196.52 267.95 203.78 265.22 211.07 C 265.50 209.18 264.22 209.31 262.85 209.63 C 264.10 204.51 266.71 199.83 268.98 195.11 Z"/>
<path fill="#2f69b1" d=" M 73.12 189.79 C 74.73 190.46 76.34 191.15 77.93 191.87 C 80.62 193.89 83.25 195.98 85.95 198.00 C 87.39 200.54 90.36 202.75 89.97 205.92 C 87.99 213.26 75.22 212.57 75.73 221.14 C 73.64 219.22 71.65 217.19 69.66 215.17 C 70.15 208.74 78.53 208.34 81.85 203.76 C 81.76 197.90 76.19 194.21 73.12 189.79 Z"/>
<path fill="#173863" d=" M 116.21 192.12 C 117.89 191.63 119.41 192.64 120.92 193.21 C 120.73 194.87 120.32 197.69 117.99 197.02 C 115.06 197.81 113.80 193.46 116.21 192.12 Z"/>
<path fill="#20508e" d=" M 94.46 192.76 C 101.76 197.45 109.00 202.33 116.74 206.28 C 118.11 207.53 119.54 208.72 121.13 209.69 C 119.62 210.07 118.13 210.57 116.67 211.12 C 116.20 211.13 115.26 211.14 114.79 211.14 C 112.26 209.61 109.58 208.33 107.10 206.72 C 101.29 202.75 95.32 199.00 89.79 194.65 C 91.61 194.38 94.47 195.62 94.46 192.76 Z"/>
<path fill="#163969" d=" M 123.20 195.06 C 125.37 194.61 127.22 196.04 128.94 197.12 C 128.38 198.44 127.73 199.72 126.90 200.89 C 125.33 200.26 123.81 199.50 122.28 198.78 C 122.56 197.53 122.89 196.29 123.20 195.06 Z"/>
<path fill="#2964ae" d=" M 85.95 198.00 C 89.37 199.79 92.83 201.61 95.89 204.00 C 97.36 206.47 98.62 209.21 96.98 211.96 C 92.65 217.21 83.71 218.58 80.61 225.08 C 79.00 223.74 77.26 222.57 75.73 221.14 C 75.22 212.57 87.99 213.26 89.97 205.92 C 90.36 202.75 87.39 200.54 85.95 198.00 Z"/>
<path fill="#133668" d=" M 132.17 198.08 C 133.97 197.90 135.46 199.29 136.94 200.12 C 136.39 201.42 135.76 202.71 134.90 203.84 C 133.24 203.29 131.48 202.93 130.05 201.89 C 130.62 200.55 131.26 199.22 132.17 198.08 Z"/>
<path fill="#0f3263" d=" M 140.16 201.07 C 141.80 201.29 143.37 201.84 144.97 202.22 C 144.94 203.96 143.84 205.45 142.89 206.84 C 141.24 206.29 139.47 205.93 138.05 204.89 C 138.62 203.55 139.27 202.23 140.16 201.07 Z"/>
<path fill="#113873" d=" M 123.05 202.78 C 138.89 208.68 154.67 214.89 171.19 218.68 C 169.70 218.93 168.08 218.95 166.80 219.85 C 165.49 220.59 164.21 221.39 162.93 222.17 C 150.29 218.02 137.36 214.37 126.23 206.83 C 124.97 205.63 123.15 204.74 123.05 202.78 Z"/>
<path fill="#393939" d=" M 251.70 213.75 C 253.82 209.70 256.84 206.23 259.82 202.78 C 259.70 206.32 257.55 209.36 256.67 212.72 C 255.04 213.17 253.42 213.96 251.70 213.75 Z"/>
<path fill="#235dab" d=" M 95.89 204.00 C 98.90 205.12 101.86 206.39 104.74 207.83 C 105.67 209.31 106.64 210.76 107.52 212.27 C 107.58 217.89 101.29 219.71 97.38 222.43 C 94.20 225.02 88.03 225.82 88.78 231.05 C 86.08 229.01 83.17 227.28 80.61 225.08 C 83.71 218.58 92.65 217.21 96.98 211.96 C 98.62 209.21 97.36 206.47 95.89 204.00 Z"/>
<path fill="#0e3269" d=" M 148.20 204.12 C 149.84 204.24 151.38 204.87 152.98 205.22 C 152.60 206.87 152.38 209.71 149.99 209.02 C 147.05 209.80 145.82 205.48 148.20 204.12 Z"/>
<path fill="#134084" d=" M 116.74 206.28 C 119.90 206.54 123.06 206.93 126.23 206.83 C 137.36 214.37 150.29 218.02 162.93 222.17 L 162.95 222.95 C 161.90 223.56 160.85 224.18 159.81 224.81 L 159.11 225.19 C 145.85 221.71 132.88 216.81 121.13 209.69 C 119.54 208.72 118.11 207.53 116.74 206.28 Z"/>
<path fill="#1d56a6" d=" M 104.74 207.83 C 105.33 207.55 106.51 207.00 107.10 206.72 C 109.58 208.33 112.26 209.61 114.79 211.14 C 116.31 214.19 120.65 217.99 117.26 221.26 C 110.67 226.33 102.18 229.25 96.83 235.91 C 94.05 234.44 91.36 232.81 88.78 231.05 C 88.03 225.82 94.20 225.02 97.38 222.43 C 101.29 219.71 107.58 217.89 107.52 212.27 C 106.64 210.76 105.67 209.31 104.74 207.83 Z"/>
<path fill="#0c2f64" d=" M 156.20 207.14 C 158.01 206.52 161.85 207.00 160.70 209.71 C 160.36 214.80 151.55 210.19 156.20 207.14 Z"/>
<path fill="#0b2b5c" d=" M 164.20 209.08 C 165.81 209.31 167.36 209.83 168.94 210.21 C 170.38 213.89 164.97 215.49 163.13 212.79 C 162.86 211.46 163.85 210.30 164.20 209.08 Z"/>
<path fill="#154895" d=" M 116.67 211.12 C 118.13 210.57 119.62 210.07 121.13 209.69 C 132.88 216.81 145.85 221.71 159.11 225.19 C 158.38 225.69 157.66 226.19 156.94 226.70 C 155.99 227.32 155.05 227.95 154.10 228.58 L 153.48 228.95 C 146.21 225.90 138.54 223.86 131.34 220.61 C 126.26 217.76 121.43 214.48 116.67 211.12 Z"/>
<path fill="#164ea2" d=" M 114.79 211.14 C 115.26 211.14 116.20 211.13 116.67 211.12 C 121.43 214.48 126.26 217.76 131.34 220.61 C 138.54 223.86 146.21 225.90 153.48 228.95 C 145.23 235.77 135.52 240.62 127.03 247.15 C 116.23 245.72 106.37 240.86 96.83 235.91 C 102.18 229.25 110.67 226.33 117.26 221.26 C 120.65 217.99 116.31 214.19 114.79 211.14 Z"/>
<path fill="#163159" d=" M 172.75 215.68 C 168.28 217.84 173.92 206.31 177.22 212.01 L 176.68 212.61 C 175.29 213.53 173.99 214.58 172.75 215.68 Z"/>
<path fill="#6a6b6c" d=" M 172.75 215.68 C 173.99 214.58 175.29 213.53 176.68 212.61 C 178.38 215.52 174.99 218.72 172.75 215.68 Z"/>
<path fill="#707070" d=" M 180.21 214.10 C 186.20 211.51 186.66 216.31 183.84 218.93 C 182.20 218.70 180.63 218.15 179.02 217.78 C 179.10 216.47 179.75 215.30 180.21 214.10 Z"/>
<path fill="#717171" d=" M 189.10 215.22 C 190.39 215.53 191.66 215.88 192.94 216.21 C 193.23 217.81 192.49 219.28 191.86 220.70 C 190.24 220.35 188.61 220.05 186.97 219.79 C 187.14 218.08 188.07 216.56 189.10 215.22 Z"/>
<path fill="#191919" d=" M 232.09 215.03 C 234.03 215.01 235.97 215.01 237.92 214.97 C 238.65 214.96 240.12 214.95 240.86 214.94 C 241.65 214.95 243.22 214.99 244.00 215.01 L 244.00 216.00 C 241.01 214.85 233.21 218.03 232.09 215.03 Z"/>
<path fill="#6d6d6d" d=" M 253.31 219.49 C 257.08 219.41 259.68 216.21 262.97 214.81 C 262.77 216.53 262.47 218.24 262.02 219.91 C 261.15 220.56 260.29 221.23 259.42 221.86 C 256.89 220.89 254.18 221.70 251.97 223.06 C 252.10 221.73 251.50 219.81 253.31 219.49 Z"/>
<path fill="#6b6b6b" d=" M 196.20 217.09 C 197.89 216.70 199.41 217.61 200.92 218.20 C 200.90 220.48 199.73 222.92 197.05 221.99 C 194.18 221.84 195.23 218.68 196.20 217.09 Z"/>
<path fill="#6d6d6d" d=" M 204.14 218.26 C 205.42 218.54 206.70 218.89 207.98 219.21 C 207.98 222.23 205.96 223.81 203.00 223.00 C 203.11 221.39 202.44 219.22 204.14 218.26 Z"/>
<path fill="#868686" d=" M 166.80 219.85 C 168.08 218.95 169.70 218.93 171.19 218.68 C 177.89 221.05 184.97 222.04 191.76 224.10 C 198.69 228.78 206.64 231.82 214.26 235.23 C 212.79 236.09 211.32 236.95 209.88 237.86 L 209.06 238.23 C 194.95 232.27 180.63 226.52 166.80 219.85 Z"/>
<path fill="#9a9a9a" d=" M 162.93 222.17 C 164.21 221.39 165.49 220.59 166.80 219.85 C 180.63 226.52 194.95 232.27 209.06 238.23 C 207.36 239.02 205.62 239.75 203.94 240.58 C 202.36 241.26 200.77 241.92 199.16 242.51 C 196.75 241.87 195.92 239.28 194.00 237.97 C 184.33 231.63 173.21 228.14 162.95 222.95 L 162.93 222.17 Z"/>
<path fill="#656565" d=" M 210.27 220.10 C 217.54 216.55 214.66 221.52 213.78 223.88 C 206.47 227.36 209.93 222.57 210.27 220.10 Z"/>
<path fill="#848484" d=" M 250.28 220.33 C 251.85 219.23 251.11 224.62 248.94 223.95 C 246.49 224.14 249.03 220.82 250.28 220.33 Z"/>
<path fill="#bdbdbd" d=" M 259.42 221.86 C 260.29 221.23 261.15 220.56 262.02 219.91 C 259.60 231.64 245.24 235.25 234.87 234.91 C 237.28 232.99 239.68 231.06 242.08 229.11 C 242.37 228.88 242.96 228.42 243.25 228.19 C 248.79 226.66 255.03 225.99 259.42 221.86 Z"/>
<path fill="#5c5c5c" d=" M 217.18 221.12 C 218.47 220.98 219.77 220.94 221.07 221.02 C 220.55 222.68 220.50 225.70 217.99 225.01 C 214.65 225.99 216.60 222.74 217.18 221.12 Z"/>
<path fill="#525252" d=" M 224.16 221.10 C 225.83 220.82 227.86 220.58 226.96 222.96 C 226.89 225.53 223.73 224.99 221.97 225.02 C 222.59 223.66 223.23 222.28 224.16 221.10 Z"/>
<path fill="#4d4d4d" d=" M 230.16 221.10 C 234.15 219.59 233.04 223.68 231.81 225.88 C 230.52 226.02 229.22 226.05 227.93 225.98 C 228.10 224.16 229.07 222.53 230.16 221.10 Z"/>
<path fill="#5e5e5e" d=" M 235.19 221.12 C 240.11 218.94 237.85 227.93 233.97 226.01 C 233.81 224.27 234.51 222.67 235.19 221.12 Z"/>
<path fill="#555555" d=" M 240.18 221.12 C 244.97 219.03 242.53 226.81 238.93 225.00 C 239.12 223.64 239.68 222.38 240.18 221.12 Z"/>
<path fill="#4a4a4a" d=" M 245.21 221.16 C 248.53 219.50 246.41 226.22 243.98 225.02 C 244.00 223.61 243.72 221.93 245.21 221.16 Z"/>
<path fill="#acacac" d=" M 159.81 224.81 C 160.85 224.18 161.90 223.56 162.95 222.95 C 173.21 228.14 184.33 231.63 194.00 237.97 C 195.92 239.28 196.75 241.87 199.16 242.51 C 193.08 245.12 186.59 247.45 179.88 246.99 C 180.03 243.89 182.86 241.57 181.91 238.20 C 175.70 232.06 167.32 228.97 159.81 224.81 Z"/>
<path fill="#747474" d=" M 191.76 224.10 C 199.19 225.01 206.50 226.62 213.79 228.22 C 215.97 229.79 218.24 231.40 221.08 231.22 C 219.78 232.07 218.42 232.84 217.10 233.67 C 216.16 234.21 215.22 234.73 214.26 235.23 C 206.64 231.82 198.69 228.78 191.76 224.10 Z"/>
<path fill="#bababa" d=" M 159.11 225.19 L 159.81 224.81 C 167.32 228.97 175.70 232.06 181.91 238.20 C 182.86 241.57 180.03 243.89 179.88 246.99 C 186.59 247.45 193.08 245.12 199.16 242.51 C 200.77 241.92 202.36 241.26 203.94 240.58 C 206.27 242.24 202.90 242.87 201.67 243.66 C 183.19 251.39 162.73 255.01 142.77 252.25 C 150.11 251.97 157.47 252.16 164.82 251.87 C 166.97 250.29 164.47 249.68 163.12 248.84 C 165.37 244.17 172.36 239.63 168.75 234.23 C 164.98 231.50 161.39 228.28 156.94 226.70 C 157.66 226.19 158.38 225.69 159.11 225.19 Z"/>
<path fill="#c4c4c4" d=" M 154.10 228.58 C 155.05 227.95 155.99 227.32 156.94 226.70 C 161.39 228.28 164.98 231.50 168.75 234.23 C 172.36 239.63 165.37 244.17 163.12 248.84 C 164.47 249.68 166.97 250.29 164.82 251.87 C 157.47 252.16 150.11 251.97 142.77 252.25 C 137.22 251.19 131.61 250.39 126.15 248.96 C 126.29 248.67 126.57 248.10 126.71 247.81 C 134.23 249.16 142.21 251.85 149.79 249.71 C 153.73 245.22 157.29 240.33 159.99 235.00 C 159.06 232.13 156.85 229.78 154.10 228.58 Z"/>
<path fill="#8e8e8e" d=" M 74.98 228.02 C 80.10 230.19 84.05 234.44 88.97 237.05 C 125.34 260.61 174.65 262.33 212.72 241.68 C 214.58 239.71 219.24 236.68 217.10 233.67 C 218.42 232.84 219.78 232.07 221.08 231.22 C 221.64 230.85 222.75 230.12 223.30 229.76 C 225.35 235.06 219.07 239.82 214.93 241.92 C 179.69 262.66 134.24 262.15 98.02 244.00 C 89.96 239.32 81.23 235.09 74.98 228.02 Z"/>
<path fill="#686868" d=" M 213.79 228.22 C 215.54 228.21 219.03 228.20 220.78 228.19 C 221.33 228.40 222.44 228.81 223.00 229.01 L 223.30 229.76 C 222.75 230.12 221.64 230.85 221.08 231.22 C 218.24 231.40 215.97 229.79 213.79 228.22 Z"/>
<path fill="#3b3b3b" d=" M 220.78 228.19 C 228.26 227.94 235.75 227.97 243.25 228.19 C 242.96 228.42 242.37 228.88 242.08 229.11 C 238.42 229.06 234.79 228.95 231.13 229.05 C 228.41 229.04 225.70 229.03 223.00 229.01 C 222.44 228.81 221.33 228.40 220.78 228.19 Z"/>
<path fill="#cecfcf" d=" M 153.48 228.95 L 154.10 228.58 C 156.85 229.78 159.06 232.13 159.99 235.00 C 157.29 240.33 153.73 245.22 149.79 249.71 C 142.21 251.85 134.23 249.16 126.71 247.81 L 127.03 247.15 C 135.52 240.62 145.23 235.77 153.48 228.95 Z"/>
<path fill="#636363" d=" M 231.13 229.05 C 234.79 228.95 238.42 229.06 242.08 229.11 C 239.68 231.06 237.28 232.99 234.87 234.91 C 232.57 236.62 230.21 238.23 227.85 239.85 C 225.91 241.06 224.02 242.34 222.09 243.56 C 220.69 242.12 220.54 239.70 222.76 238.74 C 225.81 235.74 228.46 232.38 231.13 229.05 Z"/>
</svg>