<svg xmlns="http://www.w3.org/2000/svg" width="500" height="300" version="1"><defs><filter id="e" width="1.284" height="1.058" x="-.142" y="-.029"><feGaussianBlur stdDeviation="2.37"/></filter><filter id="d"><feGaussianBlur stdDeviation="1.617"/></filter><filter id="a" width="1.417" height="1.054" x="-.209" y="-.027"><feGaussianBlur stdDeviation=".693"/></filter><filter id="b" width="1.245" height="1.06" x="-.123" y="-.03"><feGaussianBlur stdDeviation=".29"/></filter><filter id="c" width="1.227" height="1.061" x="-.113" y="-.03"><feGaussianBlur stdDeviation=".27"/></filter></defs><path fill="#7689c4" fill-rule="evenodd" stroke="#000" stroke-width="6" d="M88.388 251.344c-7.028.868-12.877-.436-19.076-9.072-6.356-8.854-5.306-28.287-4.99-42.24-.68-19.98.1-39.897 2.092-59.78.674-5.626 9.552-52.074 9.552-52.074s3.423-14.663 5.788-22.11c2.365-7.45 3.307-7.866 5.305-9.97 1.78-1.88 6.63-4.944 16.33-6.746 9.27-1.724 16.33-2.773 21.87-3.08 5.54-.31 35.01-.185 35.01-.185 17.4-10.253 25.16-13.88 33.26-16.456 8.09-2.57 13.46-2.69 19.54-.61s7.29 5.83 10.47 9.61c18.41-4.18 41.452-5.56 64.633-4.34 23.182 1.23 49.58 13.15 67.96 26.01l32.876.47 28.38.01s11.67-6.85 14.882-8.17c3.054-1.25 7.56-2.11 9.25-.68 1.69 1.43.79 2.99.174 5.77-.617 2.77 2.335 2.56 2.273 7.204-.05 3.91-2.44 3.203-3.48 4.78-1.04 1.58.26 3.8-.685 5.18-.945 1.38-2.644 1.36-4.564 1.344-1.917-.02-4.204-.5-6.053-1.42-3.7-1.85-9.395-4.05-9.395-4.05l-30.17-.41-23.89.3c9.26 13.05 13.51 28.347 13.25 48.36-.26 20.013-7.623 31.99-16.88 49.33l.123 29.89.67 15.404c.815 8.96.755 22.9-.24 26.81-.994 3.907-2.23 5.39-8.16 8.32-5.93 2.928-7.86 2.78-16.023 3.39-8.16.608-11 .067-16.63-.96-5.63-1.024-10.35-3.23-11.774-7.844-.817-2.63-4.7-.795-8.88-2.596-4.107-1.77-8.99-4.487-10.47-8.96-1.46-4.42-.42-16.337-.938-25.68 0 0-20.706 1.58-30.56 1.49-9.76-.09-29.68-2.52-31.426-5.39-1.744-2.868-.824 10.58-.75 16.49.077 5.91.765 22.32-1.265 34.533-2.033 12.245-27.084 11.1-39.225 11.245-11.27.307-21.99-9.196-20.95-13.665l-.093-6.33s-5.76-1.266-8.225-2.5c-2.46-1.23-8.85-4.825-9.86-8.636-1-3.79.465-35.58.31-40.975-.15-5.303-.243-7.01-.923-10.476-.685-3.48-7.46-23.08-16.98-24.445-10.174-1.457-18.987 2.19-26.574 10.63-7.584 8.434-11.57 20.54-12.07 30.43-.49 9.89-.94 19.03.237 28.3s3.96 23.705-3.068 24.573z" stroke-linejoin="round"/><path fill="#43599d" d="M310.056 180.605c1.9.775.983 53.368.983 53.368 0 4.922-2.65-.416-4.76-.416s-3.25-4.22-3.25-9.142c0 0 1.03-41.093-.25-37.42-1.32 3.778 3.74-7.83 7.26-6.39z" transform="matrix(2.2562 0 0 .66807 -391.672 80.268)" filter="url(#a)"/><path fill-rule="evenodd" d="M123.758 155.227s15.494-8.303 18.97-16.266c3.45-7.9 4.16-20.76 4.16-20.76s-4.088 1.09-6.118 0c-2.03-1.08-4.003-3.58-2-4.33 2-.75 6.42 3.09 10.006 1.34 3.586-1.75 3.028-7.77 4.337-8.34 1.308-.57 1.646 3.4.896 6.07-.76 2.67-3.9 4.61-3.9 4.61-1.18 8.92-1.7 16-4.3 23.48-2.98 8.59-10.47 16.41-10.47 16.41l-11.6-2.19z"/><path d="M112.433 84.077c-1.642 1.138-4.492 4.73-5.226 6.573s-1.072 4.088-.488 6.225c1.18 4.34 6.85 6.554 12.65 4.97 5.8-1.586 9.53-6.38 8.34-10.72-1.19-4.34-6.83-6.585-12.63-5-.79.215-.93.255-1.64.58.24-.6 1.41-1.64 2.57-2.316 1.2-.7 5.06-2.08 3.23-2.99-1.796-.9-5.21 1.55-6.836 2.67z"/><path fill="#fff" d="M125.153 91.827c.857 3.136-1.85 6.61-6.04 7.756-4.19 1.146-8.287-.47-9.144-3.606-.86-3.137 1.84-6.612 6.03-7.757 4.19-1.145 8.28.47 9.14 3.607z"/><path d="M123.5 91.105a5.358 4.337-49.886 1 1-6.903 8.195 5.358 4.337-49.886 1 1 6.904-8.195z"/><path fill="#fff" d="M119.636 92.243a1.614 1.306-49.886 1 1-2.08 2.468 1.614 1.306-49.886 1 1 2.08-2.46z"/><path d="M108.496 67.58c2.894-.82 6.655.154 9.83.496 3.175.342 5.972.96 5.972 3.235 0 2.28-7.432.32-10.825.75-3.392.44-5.676 2.42-7.465 1.5-1.79-.92-.405-5.15 2.49-5.97z"/><path fill="#43599d" d="M166.075 188.145l-1.036 41.312c0 4.92-1.7 8.883-3.8 8.883-2.11 0-3.8-3.962-3.8-8.883 0 0-6.32-47.96-10.24-54.22-3.01-5.77 18.49 7.462 18.87 12.908z" filter="url(#a)"/><rect width="4.106" height="67.437" x="164.362" y="179.31" ry="2.053" rx="2.053"/><path d="M152.98 49.016l13.842-8.745c2.736-1.72 5.985-1.93 7.285-.46l-12.577 9.42c-4.728 3.97-7.46 7.6-10.272 6.19-2.864-1.42-1.014-4.66 1.722-6.39z"/><path fill-rule="evenodd" d="M166.28 188.75c-4.558 0-14.78-11.23-14.428-14.277.335-2.9 12.158 6.83 13.98 8.03 1.622 1.07 4.856 6.248.447 6.248zm59.138 19.523c-1.535.93-1.538.706-1.653-1.85-.097-2.152-1.1-4.95-2.656-8.144-1.94-3.99-1.67-8.23-.14-8.51.76-.14 2.62 1.44 5.62 6.44 1.42 2.36 4.38 4.63 5.13 4.76.76.12-4.74 6.35-6.31 7.3zm-59.542-6.487c2.366 3.538 15.87 4.464 17.636 2.27 1.68-2.088-9.484-3.608-11.524-3.867-2.046-.26-8.4-1.83-6.112 1.59zm-.304 7.327c.98 1.174 14.99 2.707 15.16.104.122-2.616-17.202-3.626-15.16-.104zm144.78-5.366c2.09 1.804 10.05.182 10.775-1.495.69-1.597-7.567-1.366-8.753-1.48-1.054-.104-4.045 1.23-2.022 2.975zm.578 4.845c2.123 1.767 10.053.007 10.75-1.683.662-1.61-7.59-1.24-8.778-1.33-1.056-.09-4.024 1.3-1.97 3.01zm47.468-31.53c3.742-1.932 6.238-11.672 4.35-12.99-1.797-1.254-6.397 8.443-7.263 9.793-.77 1.202-.707 5.066 2.913 3.197z"/><path d="M417.78 60.398c1.09-.914 3.504 2.38 3.57 4.906.065 2.526-.92 5.46-3.868 5.653-2.948.194.298-3.56.298-5.504 0-1.95-1.166-4.078 0-5.055z"/><rect width="23.271" height="3.021" x="423.641" y="-81.66" rx="5.805" ry="3.852" transform="matrix(.9417 .33645 -.24212 .97025 0 0)"/><rect width="23.271" height="3.021" x="392.645" y="-204.061" transform="matrix(.9417 -.33645 -.24212 -.97025 0 0)" ry="3.852" rx="5.805"/><rect width="23.271" height="3.021" x="422.461" y="-101.169" rx="5.805" ry="3.852" transform="matrix(.9967 -.08126 .01725 -.99985 0 0)"/><path d="M172.635 223.574c2.853 0 5.15 4.237 5.15 9.5V252.2c0 5.26.594 9.674-5.15 9.496-2.85-.086-5.15-4.236-5.15-9.498V233.07c0-5.26 2.297-9.5 5.15-9.5z"/><path fill="#7689c4" d="M171.734 227.25c2.053 0 3.707 3.347 3.707 7.503v15.107c0 4.156.43 7.643-3.7 7.502-2.05-.068-3.7-3.346-3.7-7.502v-15.107c0-4.156 1.66-7.502 3.71-7.502z"/><path d="M181.9 227.444c2.853 0 5.15 4.23 5.15 9.483v19.094c0 5.26.593 9.67-5.15 9.49-2.85-.08-5.15-4.23-5.15-9.48v-19.1c0-5.25 2.297-9.48 5.15-9.48z"/><path fill="#7689c4" d="M181 231.115c2.052 0 3.705 3.34 3.705 7.49v15.08c0 4.15.428 7.63-3.706 7.49-2.06-.067-3.71-3.34-3.71-7.49v-15.08c0-4.15 1.65-7.49 3.7-7.49z"/><path d="M192.61 232.985c3.494 0 6.308 3.762 6.308 8.435v16.985c0 4.673.728 8.594-6.31 8.435-3.493-.076-6.308-3.762-6.308-8.435V241.42c0-4.673 2.814-8.435 6.31-8.435z"/><path fill="#7689c4" d="M191.505 236.25c2.516 0 4.54 2.972 4.54 6.663v13.415c0 3.69.525 6.787-4.54 6.663-2.515-.06-4.54-2.97-4.54-6.66v-13.41c0-3.69 2.024-6.66 4.54-6.66z"/><path d="M154.516 211.877c2.853 0 5.15 3.166 5.15 7.1v14.294c0 3.94.594 7.24-5.15 7.1-2.85-.06-5.15-3.16-5.15-7.1v-14.29c0-3.93 2.297-7.1 5.15-7.1z"/><path fill="#7689c4" d="M153.615 214.625c2.053 0 3.706 2.5 3.706 5.607v11.29c0 3.108.43 5.714-3.7 5.608-2.05-.05-3.7-2.5-3.7-5.607v-11.29c0-3.107 1.66-5.608 3.71-5.608z"/><path d="M162.186 216.192c2.18 0 3.934 3.277 3.934 7.347v14.79c0 4.07.454 7.48-3.934 7.34-2.178-.07-3.934-3.28-3.934-7.35v-14.79c0-4.07 1.755-7.35 3.934-7.35z"/><path fill="#43599d" d="M161.498 219.036c1.57 0 2.832 2.59 2.832 5.804v11.685c0 3.215.326 5.912-2.832 5.803-1.568-.052-2.832-2.588-2.832-5.803V224.84c0-3.215 1.263-5.804 2.832-5.804z" filter="url(#b)"/><path d="M317.95 217.425c2.85 0 5.148 3.725 5.148 8.353v16.82c0 4.628.594 8.51-5.15 8.353-2.85-.07-5.15-3.72-5.15-8.35v-16.82c0-4.63 2.298-8.35 5.15-8.35z"/><path fill="#7689c4" d="M317.048 220.66c2.053 0 3.706 2.94 3.706 6.596v13.285c0 3.66.428 6.73-3.706 6.6-2.053-.06-3.706-2.94-3.706-6.6v-13.28c0-3.65 1.653-6.59 3.706-6.59z"/><path fill-rule="evenodd" d="M291.695 205.833s13.116-4.918 16.437-2.925c1.393.836.975 13.93.975 13.93 0 11.144-.975 23.54-.975 23.54l5.433 5.573-.975-37.05s-.24-17.27-4.18-17.27c-1.81 0-.696 3.8-3.203 5.99-2.507 2.2-4.3 1.55-8.358 2.79-4.06 1.24-10.45 3.21-15.19 3.21l10.03 2.23z"/><path d="M327.53 221.236c2.854 0 5.15 3.524 5.15 7.902v15.912c0 4.377.594 8.05-5.15 7.9-2.85-.07-5.148-3.523-5.148-7.9v-15.912c0-4.378 2.296-7.902 5.15-7.902z"/><path fill="#7689c4" d="M326.63 224.295c2.053 0 3.706 2.784 3.706 6.24v12.57c0 3.456.428 6.357-3.706 6.24-2.052-.056-3.706-2.784-3.706-6.24v-12.57c0-3.456 1.653-6.24 3.706-6.24z"/><path d="M337.182 224.907c3.122 0 5.636 3.2 5.636 7.174v14.45c0 3.98.65 7.31-5.636 7.18-3.12-.06-5.636-3.2-5.636-7.17v-14.45c0-3.97 2.513-7.17 5.636-7.17z"/><path fill="#7689c4" d="M336.196 227.684c2.247 0 4.056 2.527 4.056 5.666v11.41c0 3.137.468 5.77-4.056 5.664-2.247-.05-4.057-2.527-4.057-5.665v-11.41c0-3.14 1.8-5.67 4.05-5.67z"/><path d="M296.488 211.226c2.198 0 3.967 2.998 3.967 6.722v13.536c0 3.724.458 6.848-3.967 6.722-2.197-.06-3.967-2.998-3.967-6.722v-13.536c0-3.724 1.77-6.722 3.97-6.722z"/><path fill="#42599c" d="M295.794 213.828c1.582 0 2.855 2.368 2.855 5.31v10.69c0 2.942.33 5.41-2.86 5.31-1.58-.048-2.86-2.368-2.86-5.31v-10.69c0-2.942 1.27-5.31 2.85-5.31z" filter="url(#c)"/><path d="M304.487 216.062c2.583 0 4.662 2.89 4.662 6.48v13.046c0 3.59.53 6.6-4.67 6.48-2.58-.06-4.67-2.89-4.67-6.48V222.54c0-3.59 2.08-6.478 4.66-6.478z"/><path fill="#42599c" d="M303.67 218.57c1.86 0 3.357 2.282 3.357 5.117v10.305c0 2.835.387 5.213-3.356 5.118-1.85-.047-3.35-2.283-3.35-5.118v-10.305c0-2.835 1.5-5.117 3.36-5.117z"/><path stroke="#fff" stroke-width="2.5" d="M243.265 81.398l-9.945 63.9h12.43l4.973-31.95h11.998c4.36 0 4.42 3.204 4.42 3.204s.37.79-.25 4.783l-1.24 7.987-2.48 15.975h12.43c1.4-10.7 3.79-21.293 4.9-32.026.32-5.83-.88-8.87-3.64-10.34-2.59-1.38-4.85-1.8-11.97-1.87h-12.2l3.03-19.66h-12.43z"/><path fill-rule="evenodd" d="M221.35 40.67c6.41 8.04 11.49 26.815 11.976 33.156 1.468 11.4.995 27.02.374 38.434.183 3.348.494 3.628 1.53 4.176 1.034.548 2.32-.305 2.845-4.015 1.345-18.41.085-31.24-.807-38.59-1.584-11.21-5.253-22.72-10.806-33.06-1.704-2.86-2.334-2.86-3.613-2.93-1.28-.06-7.86-5.13-1.5 2.83z"/><path fill="#96a4d2" fill-rule="evenodd" d="M186.25 35.17c-6.85 2.598-25.317 12.944-32.02 20.292 9.712-1.087 17.936-9.363 27.74-12.868 8.095-2.575 14.328-5.37 25.713-3.353 24.362 5.16 20.36 50.7 23.67 72.71 4.808 1.55 3.14-31.67 1.144-43.2-1.994-11.52-8.264-25.25-10.58-27.47-4.687-4.49-2.39-8.25-12.546-10.33-7.92-1.49-16.26 1.65-23.12 4.24z" filter="url(#d)"/><g stroke="#fff" stroke-width="2.5"><path d="M188.428 99.83l-9.945 63.9h12.43l2.643-17.204h21.133c2.8 0 7.72-1.637 12.04-4.762 4.37-3.162 8.96-11.22 9.4-19.2.44-7.985-.31-15.468-3.96-18.817-3.72-3.403-5.81-3.808-14.07-3.917h-29.68z"/><path fill="#7689c4" d="M195.11 136.695h13.44c1.92 0 5.28-.923 8.237-2.764 2.992-1.86 6.148-6.66 6.45-11.36.3-4.7-.218-9.08-2.72-11.06-2.545-2-3.99-2.24-9.635-2.3h-11.5l-4.272 27.49z"/></g><g stroke="#fff" stroke-width="2.5"><path d="M284.014 99.83l-9.945 63.9h12.43l2.64-17.204h21.13c2.8 0 7.72-1.637 12.04-4.762 4.37-3.162 8.96-11.22 9.4-19.2.44-7.985-.3-15.468-3.96-18.817-3.72-3.403-5.82-3.808-14.07-3.917H284z"/><path fill="#7689c4" d="M290.696 136.695h13.44c1.92 0 5.28-.923 8.237-2.764 2.993-1.86 6.148-6.66 6.45-11.36.3-4.7-.217-9.08-2.72-11.06-2.545-2-3.99-2.24-9.635-2.3h-11.5l-4.272 27.5z"/></g><path fill="#96a4d2" fill-rule="evenodd" d="M85.718 248.324c.942.33-7.512 1.87-13.71-6.764-6.357-8.854-5.307-29.022-4.99-42.975-.68-19.98-.084-36.73 1.91-56.612.674-5.627 10.346-55.243 10.346-55.243s2.688-11.477 5.053-18.925c2.365-7.448 3.92-8.478 5.917-10.582 1.785-1.88 6.88-3.72 16.577-5.52-22.3 7.878-28.14 75.47-31.99 105.748-3.85 30.28-.65 56.01.27 64.22.94 8.43 9.68 26.33 10.63 26.66z" filter="url(#e)"/></svg>