<?xml version="1.0" encoding="UTF-8" standalone="no"?>
<svg xmlns:dc="http://purl.org/dc/elements/1.1/" xmlns:cc="http://creativecommons.org/ns#" xmlns:rdf="http://www.w3.org/1999/02/22-rdf-syntax-ns#" xmlns:svg="http://www.w3.org/2000/svg" xmlns="http://www.w3.org/2000/svg" version="1.1" width="776" height="136" style="font-size:158px;fill:url(#linearGradient8);font-family:DesignSystemC-700" id="svg2">
  <metadata id="metadata4">
    <rdf:RDF>
      <cc:Work rdf:about="">
        <dc:format>image/svg+xml</dc:format>
        <dc:type rdf:resource="http://purl.org/dc/dcmitype/StillImage"/>
        <dc:title/>
      </cc:Work>
    </rdf:RDF>
  </metadata>
  <defs id="defs6">
    <linearGradient x1="331.94678" y1="12" x2="331.94678" y2="123" gradientUnits="userSpaceOnUse" id="linearGradient8">
      <stop style="stop-color:#99a29b;stop-opacity:1" offset="0" id="stop10"/>
      <stop style="stop-color:#738777;stop-opacity:1" offset="1" id="stop12"/>
    </linearGradient>
  </defs>
  <path d="m 130,1.125 0,9.5625 -100.420863,0 c -5.47733,0 -9.507576,1.372355 -12.102082,4.096089 -2.594523,2.723885 -3.883305,6.906307 -3.883305,12.580846 l 0,46.479315 c 0,1.74304 0.39056,3.04637 1.1875,3.90625 0.796936,0.836664 2.036319,1.25001 3.71875,1.25 l 89.4375,0 c 2.66317,0 4.52832,0.600945 5.59375,1.8125 1.154,1.21163 1.71867,3.267099 1.71875,6.15625 l 0,6.59375 c 0,2.880644 -0.56819,4.917018 -1.71875,6.125 -1.06224,1.20801 -2.93846,1.8125 -5.59375,1.8125 l -91.40625,0 0,-9.75 -16.09375,21 16.09375,21 0,-9.75 101.53125,0 c 6.92965,0 12.06113,-1.71014 15.34375,-5.15625 3.28241,-3.44608 4.90614,-8.75812 4.90625,-15.9375 l 0,-27.34375 C 138.3124,68.954254 136.80256,64.047023 133.78125,60.875 130.75974,57.614964 126.06593,56 119.6875,56 l -75.71875,0 c -2.567012,0 -4.443063,-0.604382 -5.59375,-1.8125 -1.150741,-1.208 -1.71875,-3.244217 -1.71875,-6.125 l 0,-6.5625 c 0,-2.880685 0.568009,-4.948112 1.71875,-6.15625 1.150687,-1.207981 3.026738,-1.81242 5.59375,-1.8125 l 86.03125,0 0,9.5625 16.09375,-20.96875 z" id="path14"/>
  <path d="m 291.1342,123.99808 -22.71076,0 0,-44.99808 -79.04141,0 0,44.99808 -22.58895,0 0,-96.642816 c 0,-11.110559 5.18586,-16.665949 15.55761,-16.665949 l 90.39748,0 c 12.25725,0 18.38603,6.565379 18.38603,19.695876 l 0,93.612889 m -29.66893,-90.452694 -65.00327,0 c -2.56704,0 -4.38878,0.629409 -5.46524,1.887996 -1.07651,1.168836 -1.35763,3.203199 -1.61473,6.068563 l 0,14.498055 79.04141,0 0,-14.495296 c 0,-2.877873 -0.53852,-4.901426 -1.61529,-6.070667 -0.9941,-1.259024 -2.77506,-1.888573 -5.34288,-1.888651" id="path16"/>
  <path d="m 402.74911,10.689315 54.80265,0 c 12.3426,0 18.51397,7.207121 18.51412,21.621078 l 0,91.687687 -23.06496,0 0,-85.179506 c 0,-1.906641 -0.32949,-3.247281 -0.98825,-4.021924 -0.6589,-0.834126 -1.77385,-1.251213 -3.34483,-1.251264 l -34.1443,0 c -2.37144,0 -4.05433,0.629627 -5.04869,1.888651 -0.99451,1.169241 -1.49173,3.192794 -1.49165,6.070667 l 0,82.493376 -22.17547,0 0,-82.478386 c 0,-2.883293 -0.49821,-4.910657 -1.49445,-6.082099 -0.99638,-1.261397 -2.72075,-1.892131 -5.17315,-1.892209 l -34.14429,0 c -1.57637,0 -2.69508,0.418544 -3.35611,1.255479 -0.66107,0.777251 -0.99159,2.122406 -0.99157,4.03547 l 0,85.161745 -23.05037,0 0,-96.551768 c 0,-11.171258 4.78299,-16.756997 14.349,-16.756997 l 58.96778,0 c 1.8595,0 3.25414,0.406052 4.18392,1.218057 0.92974,0.780837 1.51416,2.09259 1.75327,3.935262 0.21249,-1.842672 0.78363,-3.154425 1.71342,-3.935262 0.92974,-0.812005 2.32438,-1.218024 4.18393,-1.218057" id="path18"/>
  <path d="m 623.29087,73.786572 0,27.687578 c 0,7.82083 -1.68094,13.55608 -5.04244,17.20578 -3.2657,3.54544 -8.54826,5.31815 -15.84766,5.31815 l -103.3042,0 0,-113.308765 105.95084,0 c 6.37462,0 10.98791,1.59375 13.83987,4.78097 2.93561,3.096334 4.40348,8.05943 4.40359,14.889303 l 0,30.541231 c 0,2.01943 -0.38385,3.541999 -1.15144,4.567711 -0.76766,1.025749 -2.02243,1.650804 -3.7643,1.875165 1.74187,0.224396 2.99664,0.84945 3.7643,1.875166 0.76759,1.025746 1.1514,2.548315 1.15144,4.567711 M 599.32964,54.175299 c 1.12035,-1.216408 1.68058,-3.275044 1.68068,-6.175916 l 0.01,-6.464863 c 0,-2.896571 -0.55952,-4.952251 -1.67827,-6.167052 -1.11893,-1.214641 -2.92629,-1.822001 -5.42206,-1.822082 l -72.3081,0 0,22.454614 72.15893,0 c 2.67166,0 4.52471,-0.608176 5.55906,-1.824701 z M 521.61165,79 l 0,22.49556 72.3081,0 c 2.49789,0 4.30678,-0.60786 5.42667,-1.823629 1.11969,-1.215732 1.67958,-3.273156 1.67968,-6.17228 l 0,-6.481767 c 0,-2.907035 -0.56153,-4.970113 -1.6843,-6.189244 -1.03658,-1.219054 -2.89364,-1.8286 -5.57114,-1.82864 l -72.15901,0" id="path20"/>
  <path d="m 772.96464,123.99808 -22.80648,0 0,-44.99808 -79.28832,0 0,44.99808 -22.60724,0 0,-96.632355 c 0,-11.117534 5.20418,-16.67641 15.61256,-16.67641 l 90.78605,0 c 12.20219,0 18.30343,6.516963 18.30343,19.55063 l 0,93.758135 m -29.75504,-90.452694 -65.19195,0 c -2.59163,0 -4.43084,0.633599 -5.5176,1.900568 -1.08684,1.176619 -1.37838,3.22391 -1.63021,6.108973 l 0,14.445073 79.28832,0 0,-14.529305 c 0,-2.865576 -0.53778,-4.880484 -1.61307,-6.044728 -0.99273,-1.253645 -2.77124,-1.880503 -5.33549,-1.880581" id="path22"/>
</svg>